<?xml version="1.0" encoding="UTF-8" ?>
<svg version="1.1" width="22" height="10" xmlns="http://www.w3.org/2000/svg" shape-rendering="crispEdges">
<rect x="1" y="1" width="1" height="1" fill="#FBD036" />
<rect x="2" y="1" width="1" height="1" fill="#FBD036" />
<rect x="1" y="2" width="1" height="1" fill="#FBD036" />
<rect x="2" y="2" width="1" height="1" fill="#FBD036" />
<rect x="16" y="3" width="1" height="1" fill="#FBD036" />
<rect x="17" y="3" width="1" height="1" fill="#FBD036" />
<rect x="5" y="4" width="1" height="1" fill="#FBD036" />
<rect x="6" y="4" width="1" height="1" fill="#FBD036" />
<rect x="11" y="4" width="1" height="1" fill="#FBD036" />
<rect x="12" y="4" width="1" height="1" fill="#FBD036" />
<rect x="16" y="4" width="1" height="1" fill="#FBD036" />
<rect x="17" y="4" width="1" height="1" fill="#FBD036" />
<rect x="5" y="5" width="1" height="1" fill="#FBD036" />
<rect x="6" y="5" width="1" height="1" fill="#FBD036" />
<rect x="11" y="5" width="1" height="1" fill="#FBD036" />
<rect x="12" y="5" width="1" height="1" fill="#FBD036" />
</svg>