<?xml version="1.0" encoding="UTF-8" ?>
<svg version="1.1" width="150" height="150" xmlns="http://www.w3.org/2000/svg" shape-rendering="crispEdges">
<rect x="63" y="50" width="25" height="2" fill="#000000" />
<rect x="55" y="51" width="8" height="2" fill="#000000" />
<rect x="88" y="51" width="8" height="2" fill="#000000" />
<rect x="49" y="52" width="6" height="2" fill="#000000" />
<rect x="63" y="52" width="1" height="1" fill="#000000" />
<rect x="64" y="52" width="23" height="33" fill="#FFFFFF" />
<rect x="87" y="52" width="1" height="1" fill="#000000" />
<rect x="96" y="52" width="6" height="2" fill="#000000" />
<rect x="45" y="53" width="4" height="2" fill="#000000" />
<rect x="55" y="53" width="1" height="1" fill="#000000" />
<rect x="56" y="53" width="8" height="31" fill="#FFFFFF" />
<rect x="87" y="53" width="8" height="31" fill="#FFFFFF" />
<rect x="95" y="53" width="1" height="1" fill="#000000" />
<rect x="102" y="53" width="4" height="2" fill="#000000" />
<rect x="41" y="54" width="4" height="2" fill="#000000" />
<rect x="49" y="54" width="1" height="1" fill="#000000" />
<rect x="50" y="54" width="6" height="29" fill="#FFFFFF" />
<rect x="95" y="54" width="6" height="29" fill="#FFFFFF" />
<rect x="101" y="54" width="1" height="1" fill="#000000" />
<rect x="106" y="54" width="4" height="2" fill="#000000" />
<rect x="38" y="55" width="3" height="2" fill="#000000" />
<rect x="45" y="55" width="1" height="1" fill="#000000" />
<rect x="46" y="55" width="4" height="27" fill="#FFFFFF" />
<rect x="101" y="55" width="4" height="27" fill="#FFFFFF" />
<rect x="105" y="55" width="1" height="1" fill="#000000" />
<rect x="110" y="55" width="3" height="2" fill="#000000" />
<rect x="36" y="56" width="2" height="2" fill="#000000" />
<rect x="41" y="56" width="1" height="1" fill="#000000" />
<rect x="42" y="56" width="4" height="25" fill="#FFFFFF" />
<rect x="105" y="56" width="4" height="25" fill="#FFFFFF" />
<rect x="109" y="56" width="1" height="1" fill="#000000" />
<rect x="113" y="56" width="2" height="2" fill="#000000" />
<rect x="33" y="57" width="3" height="2" fill="#000000" />
<rect x="38" y="57" width="1" height="1" fill="#000000" />
<rect x="39" y="57" width="3" height="23" fill="#FFFFFF" />
<rect x="109" y="57" width="3" height="23" fill="#FFFFFF" />
<rect x="112" y="57" width="1" height="1" fill="#000000" />
<rect x="115" y="57" width="3" height="2" fill="#000000" />
<rect x="31" y="58" width="2" height="2" fill="#000000" />
<rect x="36" y="58" width="1" height="1" fill="#000000" />
<rect x="37" y="58" width="2" height="21" fill="#FFFFFF" />
<rect x="112" y="58" width="2" height="21" fill="#FFFFFF" />
<rect x="114" y="58" width="1" height="1" fill="#000000" />
<rect x="118" y="58" width="2" height="2" fill="#000000" />
<rect x="30" y="59" width="1" height="3" fill="#000000" />
<rect x="33" y="59" width="1" height="1" fill="#000000" />
<rect x="34" y="59" width="3" height="19" fill="#FFFFFF" />
<rect x="114" y="59" width="3" height="19" fill="#FFFFFF" />
<rect x="117" y="59" width="1" height="1" fill="#000000" />
<rect x="120" y="59" width="1" height="3" fill="#000000" />
<rect x="28" y="60" width="2" height="2" fill="#000000" />
<rect x="31" y="60" width="1" height="1" fill="#000000" />
<rect x="32" y="60" width="2" height="17" fill="#FFFFFF" />
<rect x="117" y="60" width="2" height="17" fill="#FFFFFF" />
<rect x="119" y="60" width="1" height="1" fill="#000000" />
<rect x="121" y="60" width="2" height="2" fill="#000000" />
<rect x="27" y="61" width="1" height="3" fill="#000000" />
<rect x="31" y="61" width="1" height="15" fill="#FFFFFF" />
<rect x="119" y="61" width="1" height="15" fill="#FFFFFF" />
<rect x="123" y="61" width="1" height="3" fill="#000000" />
<rect x="26" y="62" width="1" height="3" fill="#000000" />
<rect x="28" y="62" width="1" height="1" fill="#000000" />
<rect x="29" y="62" width="2" height="13" fill="#FFFFFF" />
<rect x="120" y="62" width="2" height="13" fill="#FFFFFF" />
<rect x="122" y="62" width="1" height="1" fill="#000000" />
<rect x="124" y="62" width="1" height="3" fill="#000000" />
<rect x="25" y="63" width="1" height="4" fill="#000000" />
<rect x="28" y="63" width="1" height="11" fill="#FFFFFF" />
<rect x="122" y="63" width="1" height="11" fill="#FFFFFF" />
<rect x="125" y="63" width="1" height="4" fill="#000000" />
<rect x="24" y="64" width="1" height="21" fill="#000000" />
<rect x="27" y="64" width="1" height="9" fill="#FFFFFF" />
<rect x="123" y="64" width="1" height="9" fill="#FFFFFF" />
<rect x="126" y="64" width="1" height="22" fill="#000000" />
<rect x="26" y="65" width="1" height="7" fill="#FFFFFF" />
<rect x="124" y="65" width="1" height="7" fill="#FFFFFF" />
<rect x="23" y="66" width="1" height="18" fill="#000000" />
<rect x="127" y="66" width="1" height="18" fill="#000000" />
<rect x="25" y="67" width="1" height="3" fill="#FFFFFF" />
<rect x="125" y="67" width="1" height="3" fill="#FFFFFF" />
<rect x="25" y="70" width="1" height="4" fill="#000000" />
<rect x="125" y="70" width="1" height="4" fill="#000000" />
<rect x="26" y="72" width="1" height="3" fill="#000000" />
<rect x="124" y="72" width="1" height="3" fill="#000000" />
<rect x="27" y="73" width="1" height="3" fill="#000000" />
<rect x="123" y="73" width="1" height="3" fill="#000000" />
<rect x="25" y="74" width="1" height="9" fill="#FFFFFF" />
<rect x="28" y="74" width="1" height="3" fill="#000000" />
<rect x="122" y="74" width="1" height="3" fill="#000000" />
<rect x="125" y="74" width="1" height="9" fill="#FFFFFF" />
<rect x="26" y="75" width="1" height="10" fill="#FFFFFF" />
<rect x="29" y="75" width="2" height="2" fill="#000000" />
<rect x="120" y="75" width="2" height="2" fill="#000000" />
<rect x="124" y="75" width="1" height="10" fill="#FFFFFF" />
<rect x="27" y="76" width="1" height="10" fill="#FFFFFF" />
<rect x="31" y="76" width="1" height="3" fill="#000000" />
<rect x="119" y="76" width="1" height="3" fill="#000000" />
<rect x="123" y="76" width="1" height="10" fill="#FFFFFF" />
<rect x="28" y="77" width="2" height="10" fill="#FFFFFF" />
<rect x="30" y="77" width="1" height="1" fill="#000000" />
<rect x="32" y="77" width="2" height="2" fill="#000000" />
<rect x="117" y="77" width="2" height="2" fill="#000000" />
<rect x="120" y="77" width="1" height="1" fill="#000000" />
<rect x="121" y="77" width="2" height="10" fill="#FFFFFF" />
<rect x="30" y="78" width="1" height="10" fill="#FFFFFF" />
<rect x="34" y="78" width="3" height="2" fill="#000000" />
<rect x="114" y="78" width="3" height="2" fill="#000000" />
<rect x="120" y="78" width="1" height="10" fill="#FFFFFF" />
<rect x="31" y="79" width="2" height="10" fill="#FFFFFF" />
<rect x="33" y="79" width="1" height="1" fill="#000000" />
<rect x="37" y="79" width="2" height="2" fill="#000000" />
<rect x="112" y="79" width="2" height="2" fill="#000000" />
<rect x="117" y="79" width="1" height="1" fill="#000000" />
<rect x="118" y="79" width="2" height="10" fill="#FFFFFF" />
<rect x="33" y="80" width="3" height="10" fill="#FFFFFF" />
<rect x="36" y="80" width="1" height="1" fill="#000000" />
<rect x="39" y="80" width="3" height="2" fill="#000000" />
<rect x="109" y="80" width="3" height="2" fill="#000000" />
<rect x="114" y="80" width="1" height="1" fill="#000000" />
<rect x="115" y="80" width="3" height="10" fill="#FFFFFF" />
<rect x="128" y="80" width="3" height="2" fill="#000000" />
<rect x="19" y="81" width="4" height="2" fill="#000000" />
<rect x="36" y="81" width="2" height="10" fill="#FFFFFF" />
<rect x="38" y="81" width="1" height="1" fill="#000000" />
<rect x="42" y="81" width="4" height="2" fill="#000000" />
<rect x="105" y="81" width="4" height="2" fill="#000000" />
<rect x="112" y="81" width="1" height="1" fill="#000000" />
<rect x="113" y="81" width="2" height="10" fill="#FFFFFF" />
<rect x="131" y="81" width="3" height="2" fill="#000000" />
<rect x="17" y="82" width="2" height="2" fill="#000000" />
<rect x="38" y="82" width="3" height="10" fill="#FFFFFF" />
<rect x="41" y="82" width="1" height="1" fill="#000000" />
<rect x="46" y="82" width="4" height="2" fill="#000000" />
<rect x="101" y="82" width="4" height="2" fill="#000000" />
<rect x="109" y="82" width="1" height="1" fill="#000000" />
<rect x="110" y="82" width="3" height="10" fill="#FFFFFF" />
<rect x="128" y="82" width="2" height="24" fill="#847E87" />
<rect x="130" y="82" width="1" height="1" fill="#000000" />
<rect x="134" y="82" width="2" height="2" fill="#000000" />
<rect x="14" y="83" width="3" height="2" fill="#000000" />
<rect x="19" y="83" width="1" height="1" fill="#000000" />
<rect x="20" y="83" width="3" height="22" fill="#847E87" />
<rect x="25" y="83" width="1" height="4" fill="#000000" />
<rect x="41" y="83" width="4" height="10" fill="#FFFFFF" />
<rect x="45" y="83" width="1" height="1" fill="#000000" />
<rect x="50" y="83" width="6" height="2" fill="#000000" />
<rect x="95" y="83" width="6" height="2" fill="#000000" />
<rect x="105" y="83" width="1" height="1" fill="#000000" />
<rect x="106" y="83" width="4" height="10" fill="#FFFFFF" />
<rect x="125" y="83" width="1" height="4" fill="#000000" />
<rect x="130" y="83" width="3" height="22" fill="#847E87" />
<rect x="133" y="83" width="1" height="1" fill="#000000" />
<rect x="136" y="83" width="3" height="2" fill="#000000" />
<rect x="12" y="84" width="2" height="2" fill="#000000" />
<rect x="17" y="84" width="1" height="1" fill="#000000" />
<rect x="18" y="84" width="2" height="20" fill="#847E87" />
<rect x="23" y="84" width="1" height="22" fill="#847E87" />
<rect x="45" y="84" width="4" height="10" fill="#FFFFFF" />
<rect x="49" y="84" width="1" height="1" fill="#000000" />
<rect x="56" y="84" width="8" height="2" fill="#000000" />
<rect x="87" y="84" width="8" height="2" fill="#000000" />
<rect x="101" y="84" width="1" height="1" fill="#000000" />
<rect x="102" y="84" width="4" height="10" fill="#FFFFFF" />
<rect x="133" y="84" width="2" height="20" fill="#847E87" />
<rect x="135" y="84" width="1" height="1" fill="#000000" />
<rect x="139" y="84" width="2" height="2" fill="#000000" />
<rect x="10" y="85" width="2" height="2" fill="#000000" />
<rect x="14" y="85" width="1" height="1" fill="#000000" />
<rect x="15" y="85" width="3" height="18" fill="#847E87" />
<rect x="24" y="85" width="1" height="21" fill="#847E87" />
<rect x="26" y="85" width="1" height="3" fill="#000000" />
<rect x="49" y="85" width="6" height="10" fill="#FFFFFF" />
<rect x="55" y="85" width="1" height="1" fill="#000000" />
<rect x="64" y="85" width="23" height="2" fill="#000000" />
<rect x="95" y="85" width="1" height="1" fill="#000000" />
<rect x="96" y="85" width="6" height="10" fill="#FFFFFF" />
<rect x="124" y="85" width="1" height="3" fill="#000000" />
<rect x="127" y="85" width="1" height="21" fill="#847E87" />
<rect x="135" y="85" width="3" height="18" fill="#847E87" />
<rect x="138" y="85" width="1" height="1" fill="#000000" />
<rect x="141" y="85" width="2" height="2" fill="#000000" />
<rect x="9" y="86" width="1" height="3" fill="#000000" />
<rect x="12" y="86" width="1" height="1" fill="#000000" />
<rect x="13" y="86" width="2" height="16" fill="#847E87" />
<rect x="27" y="86" width="1" height="3" fill="#000000" />
<rect x="55" y="86" width="8" height="10" fill="#FFFFFF" />
<rect x="63" y="86" width="1" height="1" fill="#000000" />
<rect x="87" y="86" width="1" height="1" fill="#000000" />
<rect x="88" y="86" width="8" height="10" fill="#FFFFFF" />
<rect x="123" y="86" width="1" height="3" fill="#000000" />
<rect x="138" y="86" width="2" height="16" fill="#847E87" />
<rect x="140" y="86" width="1" height="1" fill="#000000" />
<rect x="143" y="86" width="1" height="3" fill="#000000" />
<rect x="8" y="87" width="1" height="3" fill="#000000" />
<rect x="10" y="87" width="1" height="1" fill="#000000" />
<rect x="11" y="87" width="2" height="14" fill="#847E87" />
<rect x="25" y="87" width="1" height="19" fill="#847E87" />
<rect x="28" y="87" width="1" height="3" fill="#000000" />
<rect x="29" y="87" width="1" height="1" fill="#FFFFFF" />
<rect x="63" y="87" width="25" height="10" fill="#FFFFFF" />
<rect x="121" y="87" width="1" height="1" fill="#FFFFFF" />
<rect x="122" y="87" width="1" height="3" fill="#000000" />
<rect x="126" y="87" width="1" height="19" fill="#847E87" />
<rect x="140" y="87" width="2" height="14" fill="#847E87" />
<rect x="142" y="87" width="1" height="1" fill="#000000" />
<rect x="144" y="87" width="1" height="3" fill="#000000" />
<rect x="7" y="88" width="1" height="3" fill="#000000" />
<rect x="10" y="88" width="1" height="12" fill="#847E87" />
<rect x="26" y="88" width="1" height="18" fill="#847E87" />
<rect x="29" y="88" width="2" height="2" fill="#000000" />
<rect x="120" y="88" width="2" height="2" fill="#000000" />
<rect x="125" y="88" width="1" height="19" fill="#847E87" />
<rect x="142" y="88" width="1" height="12" fill="#847E87" />
<rect x="145" y="88" width="1" height="3" fill="#000000" />
<rect x="6" y="89" width="1" height="3" fill="#000000" />
<rect x="9" y="89" width="1" height="10" fill="#847E87" />
<rect x="27" y="89" width="1" height="18" fill="#847E87" />
<rect x="31" y="89" width="1" height="3" fill="#000000" />
<rect x="32" y="89" width="1" height="1" fill="#FFFFFF" />
<rect x="118" y="89" width="1" height="1" fill="#FFFFFF" />
<rect x="119" y="89" width="1" height="3" fill="#000000" />
<rect x="124" y="89" width="1" height="18" fill="#847E87" />
<rect x="143" y="89" width="1" height="10" fill="#847E87" />
<rect x="146" y="89" width="1" height="3" fill="#000000" />
<rect x="5" y="90" width="1" height="8" fill="#000000" />
<rect x="8" y="90" width="1" height="8" fill="#847E87" />
<rect x="28" y="90" width="2" height="17" fill="#847E87" />
<rect x="30" y="90" width="1" height="1" fill="#000000" />
<rect x="32" y="90" width="2" height="2" fill="#000000" />
<rect x="34" y="90" width="2" height="1" fill="#FFFFFF" />
<rect x="115" y="90" width="2" height="1" fill="#FFFFFF" />
<rect x="117" y="90" width="2" height="2" fill="#000000" />
<rect x="120" y="90" width="1" height="1" fill="#000000" />
<rect x="122" y="90" width="2" height="17" fill="#847E87" />
<rect x="144" y="90" width="1" height="8" fill="#847E87" />
<rect x="147" y="90" width="1" height="8" fill="#000000" />
<rect x="4" y="91" width="1" height="6" fill="#000000" />
<rect x="7" y="91" width="1" height="6" fill="#847E87" />
<rect x="30" y="91" width="1" height="16" fill="#847E87" />
<rect x="34" y="91" width="3" height="2" fill="#000000" />
<rect x="37" y="91" width="1" height="1" fill="#FFFFFF" />
<rect x="113" y="91" width="1" height="1" fill="#FFFFFF" />
<rect x="114" y="91" width="3" height="2" fill="#000000" />
<rect x="121" y="91" width="1" height="17" fill="#847E87" />
<rect x="145" y="91" width="1" height="6" fill="#847E87" />
<rect x="148" y="91" width="1" height="6" fill="#000000" />
<rect x="6" y="92" width="1" height="4" fill="#847E87" />
<rect x="31" y="92" width="2" height="16" fill="#847E87" />
<rect x="33" y="92" width="1" height="1" fill="#000000" />
<rect x="37" y="92" width="2" height="2" fill="#000000" />
<rect x="39" y="92" width="2" height="1" fill="#FFFFFF" />
<rect x="110" y="92" width="2" height="1" fill="#FFFFFF" />
<rect x="112" y="92" width="2" height="2" fill="#000000" />
<rect x="117" y="92" width="1" height="1" fill="#000000" />
<rect x="119" y="92" width="2" height="16" fill="#847E87" />
<rect x="146" y="92" width="1" height="4" fill="#847E87" />
<rect x="33" y="93" width="3" height="15" fill="#847E87" />
<rect x="36" y="93" width="1" height="1" fill="#000000" />
<rect x="39" y="93" width="3" height="2" fill="#000000" />
<rect x="42" y="93" width="3" height="1" fill="#FFFFFF" />
<rect x="106" y="93" width="3" height="1" fill="#FFFFFF" />
<rect x="109" y="93" width="3" height="2" fill="#000000" />
<rect x="114" y="93" width="1" height="1" fill="#000000" />
<rect x="117" y="93" width="2" height="15" fill="#847E87" />
<rect x="36" y="94" width="2" height="15" fill="#847E87" />
<rect x="38" y="94" width="1" height="1" fill="#000000" />
<rect x="42" y="94" width="4" height="2" fill="#000000" />
<rect x="46" y="94" width="3" height="1" fill="#FFFFFF" />
<rect x="102" y="94" width="3" height="1" fill="#FFFFFF" />
<rect x="105" y="94" width="4" height="2" fill="#000000" />
<rect x="112" y="94" width="1" height="1" fill="#000000" />
<rect x="115" y="94" width="2" height="15" fill="#847E87" />
<rect x="38" y="95" width="3" height="14" fill="#847E87" />
<rect x="41" y="95" width="1" height="1" fill="#000000" />
<rect x="46" y="95" width="4" height="2" fill="#000000" />
<rect x="50" y="95" width="5" height="1" fill="#FFFFFF" />
<rect x="96" y="95" width="5" height="1" fill="#FFFFFF" />
<rect x="101" y="95" width="4" height="2" fill="#000000" />
<rect x="109" y="95" width="1" height="1" fill="#000000" />
<rect x="110" y="95" width="5" height="14" fill="#847E87" />
<rect x="6" y="96" width="1" height="3" fill="#000000" />
<rect x="41" y="96" width="5" height="13" fill="#847E87" />
<rect x="50" y="96" width="7" height="2" fill="#000000" />
<rect x="57" y="96" width="6" height="1" fill="#FFFFFF" />
<rect x="88" y="96" width="7" height="1" fill="#FFFFFF" />
<rect x="95" y="96" width="6" height="2" fill="#000000" />
<rect x="105" y="96" width="1" height="1" fill="#000000" />
<rect x="106" y="96" width="4" height="14" fill="#847E87" />
<rect x="146" y="96" width="1" height="3" fill="#000000" />
<rect x="7" y="97" width="1" height="3" fill="#000000" />
<rect x="46" y="97" width="4" height="13" fill="#847E87" />
<rect x="57" y="97" width="7" height="2" fill="#000000" />
<rect x="64" y="97" width="23" height="1" fill="#FFFFFF" />
<rect x="87" y="97" width="8" height="2" fill="#000000" />
<rect x="101" y="97" width="1" height="1" fill="#000000" />
<rect x="102" y="97" width="4" height="13" fill="#847E87" />
<rect x="145" y="97" width="1" height="3" fill="#000000" />
<rect x="8" y="98" width="1" height="3" fill="#000000" />
<rect x="50" y="98" width="6" height="13" fill="#847E87" />
<rect x="56" y="98" width="1" height="1" fill="#000000" />
<rect x="64" y="98" width="23" height="2" fill="#000000" />
<rect x="95" y="98" width="1" height="1" fill="#000000" />
<rect x="96" y="98" width="6" height="13" fill="#847E87" />
<rect x="144" y="98" width="1" height="3" fill="#000000" />
<rect x="9" y="99" width="1" height="3" fill="#000000" />
<rect x="56" y="99" width="7" height="12" fill="#847E87" />
<rect x="63" y="99" width="1" height="1" fill="#000000" />
<rect x="87" y="99" width="9" height="12" fill="#847E87" />
<rect x="143" y="99" width="1" height="3" fill="#000000" />
<rect x="10" y="100" width="1" height="3" fill="#000000" />
<rect x="63" y="100" width="2" height="12" fill="#847E87" />
<rect x="65" y="100" width="21" height="1" fill="#000000" />
<rect x="86" y="100" width="1" height="12" fill="#847E87" />
<rect x="142" y="100" width="1" height="3" fill="#000000" />
<rect x="11" y="101" width="2" height="2" fill="#000000" />
<rect x="65" y="101" width="21" height="11" fill="#847E87" />
<rect x="140" y="101" width="2" height="2" fill="#000000" />
<rect x="13" y="102" width="2" height="2" fill="#000000" />
<rect x="138" y="102" width="2" height="2" fill="#000000" />
<rect x="12" y="103" width="1" height="1" fill="#000000" />
<rect x="15" y="103" width="3" height="2" fill="#000000" />
<rect x="135" y="103" width="3" height="2" fill="#000000" />
<rect x="140" y="103" width="1" height="1" fill="#000000" />
<rect x="14" y="104" width="1" height="1" fill="#000000" />
<rect x="18" y="104" width="2" height="2" fill="#000000" />
<rect x="133" y="104" width="2" height="2" fill="#000000" />
<rect x="138" y="104" width="1" height="1" fill="#000000" />
<rect x="17" y="105" width="1" height="1" fill="#000000" />
<rect x="20" y="105" width="3" height="2" fill="#000000" />
<rect x="130" y="105" width="3" height="2" fill="#000000" />
<rect x="135" y="105" width="1" height="1" fill="#000000" />
<rect x="19" y="106" width="1" height="1" fill="#000000" />
<rect x="23" y="106" width="4" height="2" fill="#000000" />
<rect x="126" y="106" width="4" height="2" fill="#000000" />
<rect x="133" y="106" width="1" height="1" fill="#000000" />
<rect x="22" y="107" width="1" height="1" fill="#000000" />
<rect x="27" y="107" width="4" height="2" fill="#000000" />
<rect x="122" y="107" width="4" height="2" fill="#000000" />
<rect x="130" y="107" width="1" height="1" fill="#000000" />
<rect x="26" y="108" width="1" height="1" fill="#000000" />
<rect x="31" y="108" width="5" height="2" fill="#000000" />
<rect x="117" y="108" width="5" height="2" fill="#000000" />
<rect x="126" y="108" width="1" height="1" fill="#000000" />
<rect x="30" y="109" width="1" height="1" fill="#000000" />
<rect x="36" y="109" width="6" height="2" fill="#000000" />
<rect x="42" y="109" width="4" height="1" fill="#847E87" />
<rect x="110" y="109" width="1" height="1" fill="#847E87" />
<rect x="111" y="109" width="6" height="2" fill="#000000" />
<rect x="122" y="109" width="1" height="1" fill="#000000" />
<rect x="35" y="110" width="1" height="1" fill="#000000" />
<rect x="42" y="110" width="8" height="2" fill="#000000" />
<rect x="102" y="110" width="1" height="1" fill="#847E87" />
<rect x="103" y="110" width="8" height="2" fill="#000000" />
<rect x="117" y="110" width="1" height="1" fill="#000000" />
<rect x="41" y="111" width="1" height="1" fill="#000000" />
<rect x="50" y="111" width="11" height="2" fill="#000000" />
<rect x="61" y="111" width="2" height="1" fill="#847E87" />
<rect x="87" y="111" width="5" height="1" fill="#847E87" />
<rect x="92" y="111" width="11" height="2" fill="#000000" />
<rect x="111" y="111" width="1" height="1" fill="#000000" />
<rect x="49" y="112" width="1" height="1" fill="#000000" />
<rect x="61" y="112" width="31" height="2" fill="#000000" />
<rect x="103" y="112" width="1" height="1" fill="#000000" />
<rect x="60" y="113" width="1" height="1" fill="#000000" />
<rect x="92" y="113" width="1" height="1" fill="#000000" />
</svg>