<?xml version="1.0" encoding="UTF-8" ?>
<svg version="1.1" width="150" height="150" xmlns="http://www.w3.org/2000/svg" shape-rendering="crispEdges">
<rect x="63" y="57" width="25" height="2" fill="#000000" />
<rect x="55" y="58" width="8" height="2" fill="#000000" />
<rect x="88" y="58" width="8" height="2" fill="#000000" />
<rect x="49" y="59" width="6" height="2" fill="#000000" />
<rect x="63" y="59" width="1" height="1" fill="#000000" />
<rect x="64" y="59" width="23" height="33" fill="#E9E9E9" />
<rect x="87" y="59" width="1" height="1" fill="#000000" />
<rect x="96" y="59" width="6" height="2" fill="#000000" />
<rect x="45" y="60" width="4" height="2" fill="#000000" />
<rect x="55" y="60" width="1" height="1" fill="#000000" />
<rect x="56" y="60" width="8" height="31" fill="#E9E9E9" />
<rect x="87" y="60" width="8" height="31" fill="#E9E9E9" />
<rect x="95" y="60" width="1" height="1" fill="#000000" />
<rect x="102" y="60" width="4" height="2" fill="#000000" />
<rect x="41" y="61" width="4" height="2" fill="#000000" />
<rect x="49" y="61" width="1" height="1" fill="#000000" />
<rect x="50" y="61" width="6" height="29" fill="#E9E9E9" />
<rect x="95" y="61" width="6" height="29" fill="#E9E9E9" />
<rect x="101" y="61" width="1" height="1" fill="#000000" />
<rect x="106" y="61" width="4" height="2" fill="#000000" />
<rect x="38" y="62" width="3" height="2" fill="#000000" />
<rect x="45" y="62" width="1" height="1" fill="#000000" />
<rect x="46" y="62" width="4" height="27" fill="#E9E9E9" />
<rect x="101" y="62" width="4" height="27" fill="#E9E9E9" />
<rect x="105" y="62" width="1" height="1" fill="#000000" />
<rect x="110" y="62" width="3" height="2" fill="#000000" />
<rect x="36" y="63" width="2" height="2" fill="#000000" />
<rect x="41" y="63" width="1" height="1" fill="#000000" />
<rect x="42" y="63" width="4" height="25" fill="#E9E9E9" />
<rect x="105" y="63" width="4" height="25" fill="#E9E9E9" />
<rect x="109" y="63" width="1" height="1" fill="#000000" />
<rect x="113" y="63" width="2" height="2" fill="#000000" />
<rect x="33" y="64" width="3" height="2" fill="#000000" />
<rect x="38" y="64" width="1" height="1" fill="#000000" />
<rect x="39" y="64" width="3" height="23" fill="#E9E9E9" />
<rect x="109" y="64" width="3" height="23" fill="#E9E9E9" />
<rect x="112" y="64" width="1" height="1" fill="#000000" />
<rect x="115" y="64" width="3" height="2" fill="#000000" />
<rect x="31" y="65" width="2" height="2" fill="#000000" />
<rect x="36" y="65" width="1" height="1" fill="#000000" />
<rect x="37" y="65" width="2" height="21" fill="#E9E9E9" />
<rect x="112" y="65" width="2" height="21" fill="#E9E9E9" />
<rect x="114" y="65" width="1" height="1" fill="#000000" />
<rect x="118" y="65" width="2" height="2" fill="#000000" />
<rect x="30" y="66" width="1" height="3" fill="#000000" />
<rect x="33" y="66" width="1" height="1" fill="#000000" />
<rect x="34" y="66" width="3" height="19" fill="#E9E9E9" />
<rect x="114" y="66" width="3" height="19" fill="#E9E9E9" />
<rect x="117" y="66" width="1" height="1" fill="#000000" />
<rect x="120" y="66" width="1" height="3" fill="#000000" />
<rect x="28" y="67" width="2" height="2" fill="#000000" />
<rect x="31" y="67" width="1" height="1" fill="#000000" />
<rect x="32" y="67" width="2" height="17" fill="#E9E9E9" />
<rect x="117" y="67" width="2" height="17" fill="#E9E9E9" />
<rect x="119" y="67" width="1" height="1" fill="#000000" />
<rect x="121" y="67" width="2" height="2" fill="#000000" />
<rect x="27" y="68" width="1" height="3" fill="#000000" />
<rect x="31" y="68" width="1" height="15" fill="#E9E9E9" />
<rect x="119" y="68" width="1" height="15" fill="#E9E9E9" />
<rect x="123" y="68" width="1" height="3" fill="#000000" />
<rect x="26" y="69" width="1" height="3" fill="#000000" />
<rect x="28" y="69" width="1" height="1" fill="#000000" />
<rect x="29" y="69" width="2" height="13" fill="#E9E9E9" />
<rect x="120" y="69" width="2" height="13" fill="#E9E9E9" />
<rect x="122" y="69" width="1" height="1" fill="#000000" />
<rect x="124" y="69" width="1" height="3" fill="#000000" />
<rect x="25" y="70" width="1" height="4" fill="#000000" />
<rect x="28" y="70" width="1" height="11" fill="#E9E9E9" />
<rect x="122" y="70" width="1" height="11" fill="#E9E9E9" />
<rect x="125" y="70" width="1" height="4" fill="#000000" />
<rect x="24" y="71" width="1" height="14" fill="#000000" />
<rect x="27" y="71" width="1" height="9" fill="#E9E9E9" />
<rect x="123" y="71" width="1" height="9" fill="#E9E9E9" />
<rect x="126" y="71" width="1" height="15" fill="#000000" />
<rect x="26" y="72" width="1" height="7" fill="#E9E9E9" />
<rect x="124" y="72" width="1" height="7" fill="#E9E9E9" />
<rect x="23" y="73" width="1" height="11" fill="#000000" />
<rect x="127" y="73" width="1" height="11" fill="#000000" />
<rect x="25" y="74" width="1" height="3" fill="#E9E9E9" />
<rect x="125" y="74" width="1" height="3" fill="#E9E9E9" />
<rect x="25" y="77" width="1" height="4" fill="#000000" />
<rect x="125" y="77" width="1" height="4" fill="#000000" />
<rect x="26" y="79" width="1" height="3" fill="#000000" />
<rect x="124" y="79" width="1" height="3" fill="#000000" />
<rect x="22" y="80" width="1" height="3" fill="#000000" />
<rect x="27" y="80" width="1" height="3" fill="#000000" />
<rect x="123" y="80" width="1" height="3" fill="#000000" />
<rect x="128" y="80" width="3" height="2" fill="#000000" />
<rect x="19" y="81" width="3" height="2" fill="#000000" />
<rect x="25" y="81" width="1" height="4" fill="#E9E9E9" />
<rect x="28" y="81" width="1" height="3" fill="#000000" />
<rect x="122" y="81" width="1" height="3" fill="#000000" />
<rect x="125" y="81" width="1" height="3" fill="#E9E9E9" />
<rect x="131" y="81" width="3" height="2" fill="#000000" />
<rect x="17" y="82" width="2" height="2" fill="#000000" />
<rect x="26" y="82" width="1" height="4" fill="#E9E9E9" />
<rect x="29" y="82" width="2" height="2" fill="#000000" />
<rect x="120" y="82" width="2" height="2" fill="#000000" />
<rect x="124" y="82" width="1" height="3" fill="#E9E9E9" />
<rect x="128" y="82" width="2" height="24" fill="#847E87" />
<rect x="130" y="82" width="1" height="1" fill="#000000" />
<rect x="134" y="82" width="2" height="2" fill="#000000" />
<rect x="14" y="83" width="3" height="2" fill="#000000" />
<rect x="19" y="83" width="1" height="1" fill="#000000" />
<rect x="20" y="83" width="3" height="22" fill="#847E87" />
<rect x="27" y="83" width="1" height="3" fill="#E9E9E9" />
<rect x="31" y="83" width="1" height="3" fill="#000000" />
<rect x="119" y="83" width="1" height="3" fill="#000000" />
<rect x="123" y="83" width="1" height="3" fill="#E9E9E9" />
<rect x="130" y="83" width="3" height="22" fill="#847E87" />
<rect x="133" y="83" width="1" height="1" fill="#000000" />
<rect x="136" y="83" width="3" height="2" fill="#000000" />
<rect x="12" y="84" width="2" height="2" fill="#000000" />
<rect x="17" y="84" width="1" height="1" fill="#000000" />
<rect x="18" y="84" width="2" height="20" fill="#847E87" />
<rect x="23" y="84" width="1" height="22" fill="#847E87" />
<rect x="28" y="84" width="2" height="3" fill="#E9E9E9" />
<rect x="30" y="84" width="1" height="1" fill="#000000" />
<rect x="32" y="84" width="2" height="2" fill="#000000" />
<rect x="117" y="84" width="2" height="2" fill="#000000" />
<rect x="120" y="84" width="1" height="1" fill="#000000" />
<rect x="121" y="84" width="2" height="3" fill="#E9E9E9" />
<rect x="125" y="84" width="1" height="3" fill="#000000" />
<rect x="133" y="84" width="2" height="20" fill="#847E87" />
<rect x="135" y="84" width="1" height="1" fill="#000000" />
<rect x="139" y="84" width="2" height="2" fill="#000000" />
<rect x="10" y="85" width="2" height="2" fill="#000000" />
<rect x="14" y="85" width="1" height="1" fill="#000000" />
<rect x="15" y="85" width="3" height="18" fill="#847E87" />
<rect x="24" y="85" width="1" height="21" fill="#847E87" />
<rect x="25" y="85" width="1" height="2" fill="#000000" />
<rect x="30" y="85" width="1" height="3" fill="#E9E9E9" />
<rect x="34" y="85" width="3" height="2" fill="#000000" />
<rect x="114" y="85" width="3" height="2" fill="#000000" />
<rect x="120" y="85" width="1" height="3" fill="#E9E9E9" />
<rect x="124" y="85" width="1" height="3" fill="#000000" />
<rect x="127" y="85" width="1" height="21" fill="#847E87" />
<rect x="135" y="85" width="3" height="18" fill="#847E87" />
<rect x="138" y="85" width="1" height="1" fill="#000000" />
<rect x="141" y="85" width="2" height="2" fill="#000000" />
<rect x="9" y="86" width="1" height="3" fill="#000000" />
<rect x="12" y="86" width="1" height="1" fill="#000000" />
<rect x="13" y="86" width="2" height="16" fill="#847E87" />
<rect x="26" y="86" width="2" height="2" fill="#000000" />
<rect x="31" y="86" width="2" height="3" fill="#E9E9E9" />
<rect x="33" y="86" width="1" height="1" fill="#000000" />
<rect x="37" y="86" width="2" height="2" fill="#000000" />
<rect x="112" y="86" width="2" height="2" fill="#000000" />
<rect x="117" y="86" width="1" height="1" fill="#000000" />
<rect x="118" y="86" width="2" height="3" fill="#E9E9E9" />
<rect x="123" y="86" width="1" height="3" fill="#000000" />
<rect x="138" y="86" width="2" height="16" fill="#847E87" />
<rect x="140" y="86" width="1" height="1" fill="#000000" />
<rect x="143" y="86" width="1" height="3" fill="#000000" />
<rect x="8" y="87" width="1" height="3" fill="#000000" />
<rect x="10" y="87" width="1" height="1" fill="#000000" />
<rect x="11" y="87" width="2" height="14" fill="#847E87" />
<rect x="25" y="87" width="1" height="19" fill="#847E87" />
<rect x="28" y="87" width="1" height="3" fill="#000000" />
<rect x="29" y="87" width="1" height="1" fill="#E9E9E9" />
<rect x="33" y="87" width="3" height="3" fill="#E9E9E9" />
<rect x="36" y="87" width="1" height="1" fill="#000000" />
<rect x="39" y="87" width="3" height="2" fill="#000000" />
<rect x="109" y="87" width="3" height="2" fill="#000000" />
<rect x="114" y="87" width="1" height="1" fill="#000000" />
<rect x="115" y="87" width="3" height="3" fill="#E9E9E9" />
<rect x="121" y="87" width="1" height="1" fill="#E9E9E9" />
<rect x="122" y="87" width="1" height="3" fill="#000000" />
<rect x="126" y="87" width="1" height="19" fill="#847E87" />
<rect x="140" y="87" width="2" height="14" fill="#847E87" />
<rect x="142" y="87" width="1" height="1" fill="#000000" />
<rect x="144" y="87" width="1" height="3" fill="#000000" />
<rect x="7" y="88" width="1" height="3" fill="#000000" />
<rect x="10" y="88" width="1" height="12" fill="#847E87" />
<rect x="26" y="88" width="1" height="18" fill="#847E87" />
<rect x="27" y="88" width="1" height="1" fill="#000000" />
<rect x="29" y="88" width="2" height="2" fill="#000000" />
<rect x="36" y="88" width="2" height="3" fill="#E9E9E9" />
<rect x="38" y="88" width="1" height="1" fill="#000000" />
<rect x="42" y="88" width="4" height="2" fill="#000000" />
<rect x="105" y="88" width="4" height="2" fill="#000000" />
<rect x="112" y="88" width="1" height="1" fill="#000000" />
<rect x="113" y="88" width="2" height="3" fill="#E9E9E9" />
<rect x="120" y="88" width="2" height="2" fill="#000000" />
<rect x="125" y="88" width="1" height="19" fill="#847E87" />
<rect x="142" y="88" width="1" height="12" fill="#847E87" />
<rect x="145" y="88" width="1" height="3" fill="#000000" />
<rect x="6" y="89" width="1" height="3" fill="#000000" />
<rect x="9" y="89" width="1" height="10" fill="#847E87" />
<rect x="27" y="89" width="1" height="18" fill="#847E87" />
<rect x="31" y="89" width="1" height="3" fill="#000000" />
<rect x="32" y="89" width="1" height="1" fill="#E9E9E9" />
<rect x="38" y="89" width="3" height="3" fill="#E9E9E9" />
<rect x="41" y="89" width="1" height="1" fill="#000000" />
<rect x="46" y="89" width="4" height="2" fill="#000000" />
<rect x="101" y="89" width="4" height="2" fill="#000000" />
<rect x="109" y="89" width="1" height="1" fill="#000000" />
<rect x="110" y="89" width="3" height="3" fill="#E9E9E9" />
<rect x="118" y="89" width="1" height="1" fill="#E9E9E9" />
<rect x="119" y="89" width="1" height="3" fill="#000000" />
<rect x="124" y="89" width="1" height="18" fill="#847E87" />
<rect x="143" y="89" width="1" height="10" fill="#847E87" />
<rect x="146" y="89" width="1" height="3" fill="#000000" />
<rect x="5" y="90" width="1" height="8" fill="#000000" />
<rect x="8" y="90" width="1" height="8" fill="#847E87" />
<rect x="28" y="90" width="2" height="17" fill="#847E87" />
<rect x="30" y="90" width="1" height="1" fill="#000000" />
<rect x="32" y="90" width="2" height="2" fill="#000000" />
<rect x="34" y="90" width="2" height="1" fill="#E9E9E9" />
<rect x="41" y="90" width="4" height="3" fill="#E9E9E9" />
<rect x="45" y="90" width="1" height="1" fill="#000000" />
<rect x="50" y="90" width="6" height="2" fill="#000000" />
<rect x="95" y="90" width="6" height="2" fill="#000000" />
<rect x="105" y="90" width="1" height="1" fill="#000000" />
<rect x="106" y="90" width="4" height="3" fill="#E9E9E9" />
<rect x="115" y="90" width="2" height="1" fill="#E9E9E9" />
<rect x="117" y="90" width="2" height="2" fill="#000000" />
<rect x="120" y="90" width="1" height="1" fill="#000000" />
<rect x="122" y="90" width="2" height="17" fill="#847E87" />
<rect x="144" y="90" width="1" height="8" fill="#847E87" />
<rect x="147" y="90" width="1" height="8" fill="#000000" />
<rect x="4" y="91" width="1" height="6" fill="#000000" />
<rect x="7" y="91" width="1" height="6" fill="#847E87" />
<rect x="30" y="91" width="1" height="16" fill="#847E87" />
<rect x="34" y="91" width="3" height="2" fill="#000000" />
<rect x="37" y="91" width="1" height="1" fill="#E9E9E9" />
<rect x="45" y="91" width="4" height="3" fill="#E9E9E9" />
<rect x="49" y="91" width="1" height="1" fill="#000000" />
<rect x="56" y="91" width="8" height="2" fill="#000000" />
<rect x="87" y="91" width="8" height="2" fill="#000000" />
<rect x="101" y="91" width="1" height="1" fill="#000000" />
<rect x="102" y="91" width="4" height="3" fill="#E9E9E9" />
<rect x="113" y="91" width="1" height="1" fill="#E9E9E9" />
<rect x="114" y="91" width="3" height="2" fill="#000000" />
<rect x="121" y="91" width="1" height="17" fill="#847E87" />
<rect x="145" y="91" width="1" height="6" fill="#847E87" />
<rect x="148" y="91" width="1" height="6" fill="#000000" />
<rect x="6" y="92" width="1" height="4" fill="#847E87" />
<rect x="31" y="92" width="2" height="16" fill="#847E87" />
<rect x="33" y="92" width="1" height="1" fill="#000000" />
<rect x="37" y="92" width="2" height="2" fill="#000000" />
<rect x="39" y="92" width="2" height="1" fill="#E9E9E9" />
<rect x="49" y="92" width="6" height="3" fill="#E9E9E9" />
<rect x="55" y="92" width="1" height="1" fill="#000000" />
<rect x="64" y="92" width="23" height="2" fill="#000000" />
<rect x="95" y="92" width="1" height="1" fill="#000000" />
<rect x="96" y="92" width="6" height="3" fill="#E9E9E9" />
<rect x="110" y="92" width="2" height="1" fill="#E9E9E9" />
<rect x="112" y="92" width="2" height="2" fill="#000000" />
<rect x="117" y="92" width="1" height="1" fill="#000000" />
<rect x="119" y="92" width="2" height="16" fill="#847E87" />
<rect x="146" y="92" width="1" height="4" fill="#847E87" />
<rect x="33" y="93" width="3" height="15" fill="#847E87" />
<rect x="36" y="93" width="1" height="1" fill="#000000" />
<rect x="39" y="93" width="3" height="2" fill="#000000" />
<rect x="42" y="93" width="3" height="1" fill="#E9E9E9" />
<rect x="55" y="93" width="8" height="3" fill="#E9E9E9" />
<rect x="63" y="93" width="1" height="1" fill="#000000" />
<rect x="87" y="93" width="1" height="1" fill="#000000" />
<rect x="88" y="93" width="8" height="3" fill="#E9E9E9" />
<rect x="106" y="93" width="3" height="1" fill="#E9E9E9" />
<rect x="109" y="93" width="3" height="2" fill="#000000" />
<rect x="114" y="93" width="1" height="1" fill="#000000" />
<rect x="117" y="93" width="2" height="15" fill="#847E87" />
<rect x="36" y="94" width="2" height="15" fill="#847E87" />
<rect x="38" y="94" width="1" height="1" fill="#000000" />
<rect x="42" y="94" width="4" height="2" fill="#000000" />
<rect x="46" y="94" width="3" height="1" fill="#E9E9E9" />
<rect x="63" y="94" width="25" height="3" fill="#E9E9E9" />
<rect x="102" y="94" width="3" height="1" fill="#E9E9E9" />
<rect x="105" y="94" width="4" height="2" fill="#000000" />
<rect x="112" y="94" width="1" height="1" fill="#000000" />
<rect x="115" y="94" width="2" height="15" fill="#847E87" />
<rect x="38" y="95" width="3" height="14" fill="#847E87" />
<rect x="41" y="95" width="1" height="1" fill="#000000" />
<rect x="46" y="95" width="4" height="2" fill="#000000" />
<rect x="50" y="95" width="5" height="1" fill="#E9E9E9" />
<rect x="96" y="95" width="5" height="1" fill="#E9E9E9" />
<rect x="101" y="95" width="4" height="2" fill="#000000" />
<rect x="109" y="95" width="1" height="1" fill="#000000" />
<rect x="110" y="95" width="5" height="14" fill="#847E87" />
<rect x="6" y="96" width="1" height="3" fill="#000000" />
<rect x="41" y="96" width="5" height="13" fill="#847E87" />
<rect x="50" y="96" width="6" height="2" fill="#000000" />
<rect x="56" y="96" width="7" height="1" fill="#E9E9E9" />
<rect x="88" y="96" width="7" height="1" fill="#E9E9E9" />
<rect x="95" y="96" width="6" height="2" fill="#000000" />
<rect x="105" y="96" width="1" height="1" fill="#000000" />
<rect x="106" y="96" width="4" height="14" fill="#847E87" />
<rect x="146" y="96" width="1" height="3" fill="#000000" />
<rect x="7" y="97" width="1" height="3" fill="#000000" />
<rect x="46" y="97" width="4" height="13" fill="#847E87" />
<rect x="56" y="97" width="8" height="2" fill="#000000" />
<rect x="64" y="97" width="23" height="1" fill="#E9E9E9" />
<rect x="87" y="97" width="8" height="2" fill="#000000" />
<rect x="101" y="97" width="1" height="1" fill="#000000" />
<rect x="102" y="97" width="4" height="13" fill="#847E87" />
<rect x="145" y="97" width="1" height="3" fill="#000000" />
<rect x="8" y="98" width="1" height="3" fill="#000000" />
<rect x="50" y="98" width="6" height="13" fill="#847E87" />
<rect x="64" y="98" width="23" height="2" fill="#000000" />
<rect x="95" y="98" width="1" height="1" fill="#000000" />
<rect x="96" y="98" width="6" height="13" fill="#847E87" />
<rect x="144" y="98" width="1" height="3" fill="#000000" />
<rect x="9" y="99" width="1" height="3" fill="#000000" />
<rect x="56" y="99" width="7" height="12" fill="#847E87" />
<rect x="63" y="99" width="1" height="1" fill="#000000" />
<rect x="87" y="99" width="9" height="12" fill="#847E87" />
<rect x="143" y="99" width="1" height="3" fill="#000000" />
<rect x="10" y="100" width="1" height="3" fill="#000000" />
<rect x="63" y="100" width="2" height="12" fill="#847E87" />
<rect x="65" y="100" width="21" height="1" fill="#000000" />
<rect x="86" y="100" width="1" height="12" fill="#847E87" />
<rect x="142" y="100" width="1" height="3" fill="#000000" />
<rect x="11" y="101" width="2" height="2" fill="#000000" />
<rect x="65" y="101" width="21" height="11" fill="#847E87" />
<rect x="140" y="101" width="2" height="2" fill="#000000" />
<rect x="13" y="102" width="2" height="2" fill="#000000" />
<rect x="138" y="102" width="2" height="2" fill="#000000" />
<rect x="12" y="103" width="1" height="1" fill="#000000" />
<rect x="15" y="103" width="3" height="2" fill="#000000" />
<rect x="135" y="103" width="3" height="2" fill="#000000" />
<rect x="140" y="103" width="1" height="1" fill="#000000" />
<rect x="14" y="104" width="1" height="1" fill="#000000" />
<rect x="18" y="104" width="2" height="2" fill="#000000" />
<rect x="133" y="104" width="2" height="2" fill="#000000" />
<rect x="138" y="104" width="1" height="1" fill="#000000" />
<rect x="17" y="105" width="1" height="1" fill="#000000" />
<rect x="20" y="105" width="3" height="2" fill="#000000" />
<rect x="130" y="105" width="3" height="2" fill="#000000" />
<rect x="135" y="105" width="1" height="1" fill="#000000" />
<rect x="19" y="106" width="1" height="1" fill="#000000" />
<rect x="23" y="106" width="4" height="2" fill="#000000" />
<rect x="126" y="106" width="4" height="2" fill="#000000" />
<rect x="133" y="106" width="1" height="1" fill="#000000" />
<rect x="22" y="107" width="1" height="1" fill="#000000" />
<rect x="27" y="107" width="4" height="2" fill="#000000" />
<rect x="122" y="107" width="4" height="2" fill="#000000" />
<rect x="130" y="107" width="1" height="1" fill="#000000" />
<rect x="26" y="108" width="1" height="1" fill="#000000" />
<rect x="31" y="108" width="5" height="2" fill="#000000" />
<rect x="117" y="108" width="5" height="2" fill="#000000" />
<rect x="126" y="108" width="1" height="1" fill="#000000" />
<rect x="30" y="109" width="1" height="1" fill="#000000" />
<rect x="36" y="109" width="6" height="2" fill="#000000" />
<rect x="42" y="109" width="4" height="1" fill="#847E87" />
<rect x="110" y="109" width="1" height="1" fill="#847E87" />
<rect x="111" y="109" width="6" height="2" fill="#000000" />
<rect x="122" y="109" width="1" height="1" fill="#000000" />
<rect x="35" y="110" width="1" height="1" fill="#000000" />
<rect x="42" y="110" width="8" height="2" fill="#000000" />
<rect x="102" y="110" width="1" height="1" fill="#847E87" />
<rect x="103" y="110" width="8" height="2" fill="#000000" />
<rect x="117" y="110" width="1" height="1" fill="#000000" />
<rect x="41" y="111" width="1" height="1" fill="#000000" />
<rect x="50" y="111" width="11" height="2" fill="#000000" />
<rect x="61" y="111" width="2" height="1" fill="#847E87" />
<rect x="87" y="111" width="5" height="1" fill="#847E87" />
<rect x="92" y="111" width="11" height="2" fill="#000000" />
<rect x="111" y="111" width="1" height="1" fill="#000000" />
<rect x="49" y="112" width="1" height="1" fill="#000000" />
<rect x="61" y="112" width="31" height="2" fill="#000000" />
<rect x="103" y="112" width="1" height="1" fill="#000000" />
<rect x="60" y="113" width="1" height="1" fill="#000000" />
<rect x="92" y="113" width="1" height="1" fill="#000000" />
</svg>