<?xml version="1.0" encoding="UTF-8" ?>
<svg version="1.1" width="40" height="40" xmlns="http://www.w3.org/2000/svg" shape-rendering="crispEdges">
<rect x="15" y="0" width="1" height="1" fill="#F6F6F6" />
<rect x="16" y="0" width="1" height="1" fill="#F6F6F6" />
<rect x="17" y="0" width="1" height="1" fill="#F6F6F6" />
<rect x="18" y="0" width="1" height="1" fill="#F6F6F6" />
<rect x="19" y="0" width="1" height="1" fill="#F6F6F6" />
<rect x="20" y="0" width="1" height="1" fill="#F6F6F6" />
<rect x="21" y="0" width="1" height="1" fill="#F6F6F6" />
<rect x="22" y="0" width="1" height="1" fill="#F6F6F6" />
<rect x="23" y="0" width="1" height="1" fill="#F6F6F6" />
<rect x="24" y="0" width="1" height="1" fill="#F6F6F6" />
<rect x="12" y="1" width="1" height="1" fill="#F6F6F6" />
<rect x="13" y="1" width="1" height="1" fill="#F6F6F6" />
<rect x="14" y="1" width="1" height="1" fill="#F6F6F6" />
<rect x="15" y="1" width="1" height="1" fill="#F6F6F6" />
<rect x="16" y="1" width="1" height="1" fill="#F6F6F6" />
<rect x="17" y="1" width="1" height="1" fill="#F6F6F6" />
<rect x="18" y="1" width="1" height="1" fill="#F6F6F6" />
<rect x="19" y="1" width="1" height="1" fill="#F6F6F6" />
<rect x="20" y="1" width="1" height="1" fill="#F6F6F6" />
<rect x="21" y="1" width="1" height="1" fill="#F6F6F6" />
<rect x="22" y="1" width="1" height="1" fill="#F6F6F6" />
<rect x="23" y="1" width="1" height="1" fill="#F6F6F6" />
<rect x="24" y="1" width="1" height="1" fill="#F6F6F6" />
<rect x="25" y="1" width="1" height="1" fill="#F6F6F6" />
<rect x="26" y="1" width="1" height="1" fill="#F6F6F6" />
<rect x="27" y="1" width="1" height="1" fill="#F6F6F6" />
<rect x="10" y="2" width="1" height="1" fill="#F6F6F6" />
<rect x="11" y="2" width="1" height="1" fill="#F6F6F6" />
<rect x="12" y="2" width="1" height="1" fill="#F6F6F6" />
<rect x="13" y="2" width="1" height="1" fill="#F6F6F6" />
<rect x="14" y="2" width="1" height="1" fill="#F6F6F6" />
<rect x="15" y="2" width="1" height="1" fill="#F6F6F6" />
<rect x="24" y="2" width="1" height="1" fill="#F6F6F6" />
<rect x="25" y="2" width="1" height="1" fill="#F6F6F6" />
<rect x="26" y="2" width="1" height="1" fill="#F6F6F6" />
<rect x="27" y="2" width="1" height="1" fill="#F6F6F6" />
<rect x="28" y="2" width="1" height="1" fill="#F6F6F6" />
<rect x="29" y="2" width="1" height="1" fill="#F6F6F6" />
<rect x="9" y="3" width="1" height="1" fill="#F6F6F6" />
<rect x="10" y="3" width="1" height="1" fill="#F6F6F6" />
<rect x="11" y="3" width="1" height="1" fill="#F6F6F6" />
<rect x="12" y="3" width="1" height="1" fill="#F6F6F6" />
<rect x="27" y="3" width="1" height="1" fill="#F6F6F6" />
<rect x="28" y="3" width="1" height="1" fill="#F6F6F6" />
<rect x="29" y="3" width="1" height="1" fill="#F6F6F6" />
<rect x="30" y="3" width="1" height="1" fill="#F6F6F6" />
<rect x="7" y="4" width="1" height="1" fill="#F6F6F6" />
<rect x="8" y="4" width="1" height="1" fill="#F6F6F6" />
<rect x="9" y="4" width="1" height="1" fill="#F6F6F6" />
<rect x="10" y="4" width="1" height="1" fill="#F6F6F6" />
<rect x="29" y="4" width="1" height="1" fill="#F6F6F6" />
<rect x="30" y="4" width="1" height="1" fill="#F6F6F6" />
<rect x="31" y="4" width="1" height="1" fill="#F6F6F6" />
<rect x="32" y="4" width="1" height="1" fill="#F6F6F6" />
<rect x="6" y="5" width="1" height="1" fill="#F6F6F6" />
<rect x="7" y="5" width="1" height="1" fill="#F6F6F6" />
<rect x="8" y="5" width="1" height="1" fill="#F6F6F6" />
<rect x="9" y="5" width="1" height="1" fill="#F6F6F6" />
<rect x="30" y="5" width="1" height="1" fill="#F6F6F6" />
<rect x="31" y="5" width="1" height="1" fill="#F6F6F6" />
<rect x="32" y="5" width="1" height="1" fill="#F6F6F6" />
<rect x="33" y="5" width="1" height="1" fill="#F6F6F6" />
<rect x="5" y="6" width="1" height="1" fill="#F6F6F6" />
<rect x="6" y="6" width="1" height="1" fill="#F6F6F6" />
<rect x="7" y="6" width="1" height="1" fill="#F6F6F6" />
<rect x="32" y="6" width="1" height="1" fill="#F6F6F6" />
<rect x="33" y="6" width="1" height="1" fill="#F6F6F6" />
<rect x="34" y="6" width="1" height="1" fill="#F6F6F6" />
<rect x="4" y="7" width="1" height="1" fill="#F6F6F6" />
<rect x="5" y="7" width="1" height="1" fill="#F6F6F6" />
<rect x="6" y="7" width="1" height="1" fill="#F6F6F6" />
<rect x="33" y="7" width="1" height="1" fill="#F6F6F6" />
<rect x="34" y="7" width="1" height="1" fill="#F6F6F6" />
<rect x="35" y="7" width="1" height="1" fill="#F6F6F6" />
<rect x="4" y="8" width="1" height="1" fill="#F6F6F6" />
<rect x="5" y="8" width="1" height="1" fill="#F6F6F6" />
<rect x="34" y="8" width="1" height="1" fill="#F6F6F6" />
<rect x="35" y="8" width="1" height="1" fill="#F6F6F6" />
<rect x="3" y="9" width="1" height="1" fill="#F6F6F6" />
<rect x="4" y="9" width="1" height="1" fill="#F6F6F6" />
<rect x="5" y="9" width="1" height="1" fill="#F6F6F6" />
<rect x="34" y="9" width="1" height="1" fill="#F6F6F6" />
<rect x="35" y="9" width="1" height="1" fill="#F6F6F6" />
<rect x="36" y="9" width="1" height="1" fill="#F6F6F6" />
<rect x="2" y="10" width="1" height="1" fill="#F6F6F6" />
<rect x="3" y="10" width="1" height="1" fill="#F6F6F6" />
<rect x="4" y="10" width="1" height="1" fill="#F6F6F6" />
<rect x="35" y="10" width="1" height="1" fill="#F6F6F6" />
<rect x="36" y="10" width="1" height="1" fill="#F6F6F6" />
<rect x="37" y="10" width="1" height="1" fill="#F6F6F6" />
<rect x="2" y="11" width="1" height="1" fill="#F6F6F6" />
<rect x="3" y="11" width="1" height="1" fill="#F6F6F6" />
<rect x="36" y="11" width="1" height="1" fill="#F6F6F6" />
<rect x="37" y="11" width="1" height="1" fill="#F6F6F6" />
<rect x="1" y="12" width="1" height="1" fill="#F6F6F6" />
<rect x="2" y="12" width="1" height="1" fill="#F6F6F6" />
<rect x="3" y="12" width="1" height="1" fill="#F6F6F6" />
<rect x="36" y="12" width="1" height="1" fill="#F6F6F6" />
<rect x="37" y="12" width="1" height="1" fill="#F6F6F6" />
<rect x="38" y="12" width="1" height="1" fill="#F6F6F6" />
<rect x="1" y="13" width="1" height="1" fill="#F6F6F6" />
<rect x="2" y="13" width="1" height="1" fill="#F6F6F6" />
<rect x="37" y="13" width="1" height="1" fill="#F6F6F6" />
<rect x="38" y="13" width="1" height="1" fill="#F6F6F6" />
<rect x="1" y="14" width="1" height="1" fill="#F6F6F6" />
<rect x="2" y="14" width="1" height="1" fill="#F6F6F6" />
<rect x="37" y="14" width="1" height="1" fill="#F6F6F6" />
<rect x="38" y="14" width="1" height="1" fill="#F6F6F6" />
<rect x="0" y="15" width="1" height="1" fill="#F6F6F6" />
<rect x="1" y="15" width="1" height="1" fill="#F6F6F6" />
<rect x="2" y="15" width="1" height="1" fill="#F6F6F6" />
<rect x="37" y="15" width="1" height="1" fill="#F6F6F6" />
<rect x="38" y="15" width="1" height="1" fill="#F6F6F6" />
<rect x="39" y="15" width="1" height="1" fill="#F6F6F6" />
<rect x="0" y="16" width="1" height="1" fill="#F6F6F6" />
<rect x="1" y="16" width="1" height="1" fill="#F6F6F6" />
<rect x="38" y="16" width="1" height="1" fill="#F6F6F6" />
<rect x="39" y="16" width="1" height="1" fill="#F6F6F6" />
<rect x="0" y="17" width="1" height="1" fill="#F6F6F6" />
<rect x="1" y="17" width="1" height="1" fill="#F6F6F6" />
<rect x="38" y="17" width="1" height="1" fill="#F6F6F6" />
<rect x="39" y="17" width="1" height="1" fill="#F6F6F6" />
<rect x="0" y="18" width="1" height="1" fill="#F6F6F6" />
<rect x="1" y="18" width="1" height="1" fill="#F6F6F6" />
<rect x="38" y="18" width="1" height="1" fill="#F6F6F6" />
<rect x="39" y="18" width="1" height="1" fill="#F6F6F6" />
<rect x="0" y="19" width="1" height="1" fill="#F6F6F6" />
<rect x="1" y="19" width="1" height="1" fill="#F6F6F6" />
<rect x="38" y="19" width="1" height="1" fill="#F6F6F6" />
<rect x="39" y="19" width="1" height="1" fill="#F6F6F6" />
<rect x="0" y="20" width="1" height="1" fill="#F6F6F6" />
<rect x="1" y="20" width="1" height="1" fill="#F6F6F6" />
<rect x="38" y="20" width="1" height="1" fill="#F6F6F6" />
<rect x="39" y="20" width="1" height="1" fill="#F6F6F6" />
<rect x="0" y="21" width="1" height="1" fill="#F6F6F6" />
<rect x="1" y="21" width="1" height="1" fill="#F6F6F6" />
<rect x="38" y="21" width="1" height="1" fill="#F6F6F6" />
<rect x="39" y="21" width="1" height="1" fill="#F6F6F6" />
<rect x="0" y="22" width="1" height="1" fill="#F6F6F6" />
<rect x="1" y="22" width="1" height="1" fill="#F6F6F6" />
<rect x="38" y="22" width="1" height="1" fill="#F6F6F6" />
<rect x="39" y="22" width="1" height="1" fill="#F6F6F6" />
<rect x="0" y="23" width="1" height="1" fill="#F6F6F6" />
<rect x="1" y="23" width="1" height="1" fill="#F6F6F6" />
<rect x="38" y="23" width="1" height="1" fill="#F6F6F6" />
<rect x="39" y="23" width="1" height="1" fill="#F6F6F6" />
<rect x="0" y="24" width="1" height="1" fill="#F6F6F6" />
<rect x="1" y="24" width="1" height="1" fill="#F6F6F6" />
<rect x="2" y="24" width="1" height="1" fill="#F6F6F6" />
<rect x="37" y="24" width="1" height="1" fill="#F6F6F6" />
<rect x="38" y="24" width="1" height="1" fill="#F6F6F6" />
<rect x="39" y="24" width="1" height="1" fill="#F6F6F6" />
<rect x="1" y="25" width="1" height="1" fill="#F6F6F6" />
<rect x="2" y="25" width="1" height="1" fill="#F6F6F6" />
<rect x="37" y="25" width="1" height="1" fill="#F6F6F6" />
<rect x="38" y="25" width="1" height="1" fill="#F6F6F6" />
<rect x="1" y="26" width="1" height="1" fill="#F6F6F6" />
<rect x="2" y="26" width="1" height="1" fill="#F6F6F6" />
<rect x="37" y="26" width="1" height="1" fill="#F6F6F6" />
<rect x="38" y="26" width="1" height="1" fill="#F6F6F6" />
<rect x="1" y="27" width="1" height="1" fill="#F6F6F6" />
<rect x="2" y="27" width="1" height="1" fill="#F6F6F6" />
<rect x="3" y="27" width="1" height="1" fill="#F6F6F6" />
<rect x="36" y="27" width="1" height="1" fill="#F6F6F6" />
<rect x="37" y="27" width="1" height="1" fill="#F6F6F6" />
<rect x="38" y="27" width="1" height="1" fill="#F6F6F6" />
<rect x="2" y="28" width="1" height="1" fill="#F6F6F6" />
<rect x="3" y="28" width="1" height="1" fill="#F6F6F6" />
<rect x="36" y="28" width="1" height="1" fill="#F6F6F6" />
<rect x="37" y="28" width="1" height="1" fill="#F6F6F6" />
<rect x="2" y="29" width="1" height="1" fill="#F6F6F6" />
<rect x="3" y="29" width="1" height="1" fill="#F6F6F6" />
<rect x="4" y="29" width="1" height="1" fill="#F6F6F6" />
<rect x="35" y="29" width="1" height="1" fill="#F6F6F6" />
<rect x="36" y="29" width="1" height="1" fill="#F6F6F6" />
<rect x="37" y="29" width="1" height="1" fill="#F6F6F6" />
<rect x="3" y="30" width="1" height="1" fill="#F6F6F6" />
<rect x="4" y="30" width="1" height="1" fill="#F6F6F6" />
<rect x="5" y="30" width="1" height="1" fill="#F6F6F6" />
<rect x="34" y="30" width="1" height="1" fill="#F6F6F6" />
<rect x="35" y="30" width="1" height="1" fill="#F6F6F6" />
<rect x="36" y="30" width="1" height="1" fill="#F6F6F6" />
<rect x="4" y="31" width="1" height="1" fill="#F6F6F6" />
<rect x="5" y="31" width="1" height="1" fill="#F6F6F6" />
<rect x="34" y="31" width="1" height="1" fill="#F6F6F6" />
<rect x="35" y="31" width="1" height="1" fill="#F6F6F6" />
<rect x="4" y="32" width="1" height="1" fill="#F6F6F6" />
<rect x="5" y="32" width="1" height="1" fill="#F6F6F6" />
<rect x="6" y="32" width="1" height="1" fill="#F6F6F6" />
<rect x="33" y="32" width="1" height="1" fill="#F6F6F6" />
<rect x="34" y="32" width="1" height="1" fill="#F6F6F6" />
<rect x="35" y="32" width="1" height="1" fill="#F6F6F6" />
<rect x="5" y="33" width="1" height="1" fill="#F6F6F6" />
<rect x="6" y="33" width="1" height="1" fill="#F6F6F6" />
<rect x="7" y="33" width="1" height="1" fill="#F6F6F6" />
<rect x="32" y="33" width="1" height="1" fill="#F6F6F6" />
<rect x="33" y="33" width="1" height="1" fill="#F6F6F6" />
<rect x="34" y="33" width="1" height="1" fill="#F6F6F6" />
<rect x="6" y="34" width="1" height="1" fill="#F6F6F6" />
<rect x="7" y="34" width="1" height="1" fill="#F6F6F6" />
<rect x="8" y="34" width="1" height="1" fill="#F6F6F6" />
<rect x="9" y="34" width="1" height="1" fill="#F6F6F6" />
<rect x="30" y="34" width="1" height="1" fill="#F6F6F6" />
<rect x="31" y="34" width="1" height="1" fill="#F6F6F6" />
<rect x="32" y="34" width="1" height="1" fill="#F6F6F6" />
<rect x="33" y="34" width="1" height="1" fill="#F6F6F6" />
<rect x="7" y="35" width="1" height="1" fill="#F6F6F6" />
<rect x="8" y="35" width="1" height="1" fill="#F6F6F6" />
<rect x="9" y="35" width="1" height="1" fill="#F6F6F6" />
<rect x="10" y="35" width="1" height="1" fill="#F6F6F6" />
<rect x="29" y="35" width="1" height="1" fill="#F6F6F6" />
<rect x="30" y="35" width="1" height="1" fill="#F6F6F6" />
<rect x="31" y="35" width="1" height="1" fill="#F6F6F6" />
<rect x="32" y="35" width="1" height="1" fill="#F6F6F6" />
<rect x="9" y="36" width="1" height="1" fill="#F6F6F6" />
<rect x="10" y="36" width="1" height="1" fill="#F6F6F6" />
<rect x="11" y="36" width="1" height="1" fill="#F6F6F6" />
<rect x="12" y="36" width="1" height="1" fill="#F6F6F6" />
<rect x="27" y="36" width="1" height="1" fill="#F6F6F6" />
<rect x="28" y="36" width="1" height="1" fill="#F6F6F6" />
<rect x="29" y="36" width="1" height="1" fill="#F6F6F6" />
<rect x="30" y="36" width="1" height="1" fill="#F6F6F6" />
<rect x="10" y="37" width="1" height="1" fill="#F6F6F6" />
<rect x="11" y="37" width="1" height="1" fill="#F6F6F6" />
<rect x="12" y="37" width="1" height="1" fill="#F6F6F6" />
<rect x="13" y="37" width="1" height="1" fill="#F6F6F6" />
<rect x="14" y="37" width="1" height="1" fill="#F6F6F6" />
<rect x="15" y="37" width="1" height="1" fill="#F6F6F6" />
<rect x="24" y="37" width="1" height="1" fill="#F6F6F6" />
<rect x="25" y="37" width="1" height="1" fill="#F6F6F6" />
<rect x="26" y="37" width="1" height="1" fill="#F6F6F6" />
<rect x="27" y="37" width="1" height="1" fill="#F6F6F6" />
<rect x="28" y="37" width="1" height="1" fill="#F6F6F6" />
<rect x="29" y="37" width="1" height="1" fill="#F6F6F6" />
<rect x="12" y="38" width="1" height="1" fill="#F6F6F6" />
<rect x="13" y="38" width="1" height="1" fill="#F6F6F6" />
<rect x="14" y="38" width="1" height="1" fill="#F6F6F6" />
<rect x="15" y="38" width="1" height="1" fill="#F6F6F6" />
<rect x="16" y="38" width="1" height="1" fill="#F6F6F6" />
<rect x="17" y="38" width="1" height="1" fill="#F6F6F6" />
<rect x="18" y="38" width="1" height="1" fill="#F6F6F6" />
<rect x="19" y="38" width="1" height="1" fill="#F6F6F6" />
<rect x="20" y="38" width="1" height="1" fill="#F6F6F6" />
<rect x="21" y="38" width="1" height="1" fill="#F6F6F6" />
<rect x="22" y="38" width="1" height="1" fill="#F6F6F6" />
<rect x="23" y="38" width="1" height="1" fill="#F6F6F6" />
<rect x="24" y="38" width="1" height="1" fill="#F6F6F6" />
<rect x="25" y="38" width="1" height="1" fill="#F6F6F6" />
<rect x="26" y="38" width="1" height="1" fill="#F6F6F6" />
<rect x="27" y="38" width="1" height="1" fill="#F6F6F6" />
<rect x="15" y="39" width="1" height="1" fill="#F6F6F6" />
<rect x="16" y="39" width="1" height="1" fill="#F6F6F6" />
<rect x="17" y="39" width="1" height="1" fill="#F6F6F6" />
<rect x="18" y="39" width="1" height="1" fill="#F6F6F6" />
<rect x="19" y="39" width="1" height="1" fill="#F6F6F6" />
<rect x="20" y="39" width="1" height="1" fill="#F6F6F6" />
<rect x="21" y="39" width="1" height="1" fill="#F6F6F6" />
<rect x="22" y="39" width="1" height="1" fill="#F6F6F6" />
<rect x="23" y="39" width="1" height="1" fill="#F6F6F6" />
<rect x="24" y="39" width="1" height="1" fill="#F6F6F6" />
</svg>