<?xml version="1.0" encoding="UTF-8" ?>
<svg version="1.1" width="42" height="80" xmlns="http://www.w3.org/2000/svg" shape-rendering="crispEdges">
<rect x="22" y="0" width="2" height="2" fill="#FFFFFF" />
<rect x="23" y="2" width="2" height="2" fill="#FFFFFF" />
<rect x="22" y="3" width="1" height="5" fill="#FFFFFF" />
<rect x="21" y="4" width="1" height="2" fill="#FFFFFF" />
<rect x="23" y="4" width="1" height="5" fill="#FFFFFF" />
<rect x="24" y="5" width="1" height="8" fill="#FFFFFF" />
<rect x="20" y="7" width="2" height="3" fill="#FFFFFF" />
<rect x="25" y="7" width="1" height="6" fill="#FFFFFF" />
<rect x="28" y="7" width="2" height="4" fill="#FFFFFF" />
<rect x="26" y="8" width="2" height="2" fill="#FFFFFF" />
<rect x="17" y="9" width="2" height="2" fill="#FFFFFF" />
<rect x="30" y="9" width="2" height="2" fill="#FFFFFF" />
<rect x="19" y="10" width="2" height="2" fill="#FFFFFF" />
<rect x="26" y="10" width="1" height="3" fill="#FFFFFF" />
<rect x="23" y="11" width="1" height="4" fill="#FFFFFF" />
<rect x="27" y="11" width="1" height="3" fill="#FFFFFF" />
<rect x="31" y="11" width="2" height="2" fill="#FFFFFF" />
<rect x="28" y="12" width="1" height="5" fill="#FFFFFF" />
<rect x="22" y="13" width="1" height="3" fill="#FFFFFF" />
<rect x="29" y="13" width="1" height="4" fill="#FFFFFF" />
<rect x="21" y="14" width="1" height="2" fill="#FFFFFF" />
<rect x="30" y="17" width="2" height="2" fill="#FFFFFF" />
</svg>