<?xml version="1.0" encoding="UTF-8" ?>
<svg version="1.1" width="42" height="80" xmlns="http://www.w3.org/2000/svg" shape-rendering="crispEdges">
<rect x="26" y="0" width="2" height="1" fill="#FFFFFF" />
<rect x="25" y="1" width="1" height="1" fill="#FFFFFF" />
<rect x="27" y="1" width="1" height="1" fill="#FFFFFF" />
<rect x="23" y="5" width="2" height="1" fill="#FFFFFF" />
<rect x="26" y="5" width="1" height="1" fill="#FFFFFF" />
<rect x="23" y="6" width="1" height="1" fill="#FFFFFF" />
<rect x="24" y="7" width="1" height="2" fill="#FFFFFF" />
<rect x="25" y="8" width="2" height="2" fill="#FFFFFF" />
<rect x="26" y="10" width="1" height="1" fill="#FFFFFF" />
<rect x="33" y="10" width="2" height="1" fill="#FFFFFF" />
<rect x="19" y="11" width="2" height="2" fill="#FFFFFF" />
<rect x="27" y="11" width="1" height="1" fill="#FFFFFF" />
<rect x="33" y="11" width="1" height="1" fill="#FFFFFF" />
<rect x="24" y="12" width="1" height="1" fill="#FFFFFF" />
<rect x="26" y="12" width="1" height="1" fill="#FFFFFF" />
<rect x="28" y="12" width="1" height="1" fill="#FFFFFF" />
<rect x="23" y="13" width="1" height="2" fill="#FFFFFF" />
<rect x="25" y="13" width="1" height="1" fill="#FFFFFF" />
<rect x="22" y="14" width="1" height="2" fill="#FFFFFF" />
<rect x="28" y="14" width="1" height="3" fill="#FFFFFF" />
<rect x="21" y="15" width="1" height="1" fill="#FFFFFF" />
<rect x="25" y="15" width="1" height="1" fill="#FFFFFF" />
<rect x="29" y="15" width="1" height="2" fill="#FFFFFF" />
<rect x="9" y="16" width="1" height="1" fill="#FFFFFF" />
<rect x="24" y="16" width="1" height="1" fill="#FFFFFF" />
<rect x="36" y="16" width="1" height="2" fill="#FFFFFF" />
<rect x="38" y="16" width="2" height="1" fill="#FFFFFF" />
<rect x="23" y="17" width="1" height="2" fill="#FFFFFF" />
<rect x="27" y="17" width="1" height="2" fill="#FFFFFF" />
<rect x="30" y="17" width="1" height="1" fill="#FFFFFF" />
<rect x="37" y="17" width="1" height="1" fill="#FFFFFF" />
<rect x="39" y="17" width="1" height="1" fill="#FFFFFF" />
<rect x="24" y="18" width="1" height="3" fill="#FFFFFF" />
<rect x="26" y="18" width="1" height="5" fill="#FFFFFF" />
<rect x="34" y="18" width="1" height="1" fill="#FFFFFF" />
<rect x="25" y="19" width="1" height="3" fill="#FFFFFF" />
<rect x="29" y="19" width="1" height="2" fill="#FFFFFF" />
<rect x="7" y="20" width="1" height="1" fill="#FFFFFF" />
<rect x="12" y="20" width="1" height="1" fill="#FFFFFF" />
<rect x="21" y="20" width="3" height="2" fill="#FFFFFF" />
<rect x="13" y="21" width="1" height="1" fill="#FFFFFF" />
<rect x="15" y="21" width="1" height="1" fill="#FFFFFF" />
<rect x="18" y="21" width="2" height="4" fill="#FFFFFF" />
<rect x="27" y="21" width="2" height="2" fill="#FFFFFF" />
<rect x="20" y="22" width="3" height="2" fill="#FFFFFF" />
<rect x="29" y="22" width="1" height="3" fill="#FFFFFF" />
<rect x="28" y="23" width="1" height="3" fill="#FFFFFF" />
<rect x="32" y="23" width="1" height="2" fill="#FFFFFF" />
<rect x="21" y="24" width="1" height="2" fill="#FFFFFF" />
<rect x="30" y="24" width="2" height="2" fill="#FFFFFF" />
<rect x="33" y="24" width="1" height="1" fill="#FFFFFF" />
<rect x="25" y="26" width="1" height="2" fill="#FFFFFF" />
<rect x="18" y="27" width="2" height="1" fill="#FFFFFF" />
<rect x="24" y="27" width="1" height="5" fill="#FFFFFF" />
<rect x="15" y="28" width="4" height="2" fill="#FFFFFF" />
<rect x="23" y="28" width="1" height="4" fill="#FFFFFF" />
<rect x="25" y="29" width="1" height="2" fill="#FFFFFF" />
<rect x="30" y="29" width="4" height="1" fill="#FFFFFF" />
<rect x="16" y="30" width="3" height="1" fill="#FFFFFF" />
<rect x="31" y="30" width="3" height="1" fill="#FFFFFF" />
<rect x="16" y="31" width="2" height="4" fill="#FFFFFF" />
<rect x="31" y="31" width="1" height="3" fill="#FFFFFF" />
<rect x="15" y="32" width="1" height="2" fill="#FFFFFF" />
<rect x="25" y="32" width="2" height="2" fill="#FFFFFF" />
<rect x="28" y="32" width="1" height="5" fill="#FFFFFF" />
<rect x="30" y="32" width="1" height="2" fill="#FFFFFF" />
<rect x="12" y="33" width="2" height="3" fill="#FFFFFF" />
<rect x="21" y="33" width="2" height="2" fill="#FFFFFF" />
<rect x="29" y="33" width="1" height="4" fill="#FFFFFF" />
<rect x="20" y="34" width="1" height="2" fill="#FFFFFF" />
<rect x="23" y="34" width="2" height="4" fill="#FFFFFF" />
<rect x="15" y="35" width="2" height="2" fill="#FFFFFF" />
<rect x="21" y="35" width="1" height="1" fill="#FFFFFF" />
<rect x="13" y="37" width="3" height="5" fill="#FFFFFF" />
<rect x="17" y="38" width="4" height="2" fill="#FFFFFF" />
<rect x="16" y="39" width="1" height="3" fill="#FFFFFF" />
<rect x="22" y="39" width="2" height="2" fill="#FFFFFF" />
<rect x="17" y="40" width="1" height="1" fill="#FFFFFF" />
<rect x="24" y="40" width="1" height="3" fill="#FFFFFF" />
<rect x="11" y="41" width="2" height="3" fill="#FFFFFF" />
<rect x="23" y="41" width="1" height="2" fill="#FFFFFF" />
<rect x="25" y="41" width="2" height="2" fill="#FFFFFF" />
<rect x="29" y="41" width="3" height="2" fill="#FFFFFF" />
<rect x="13" y="42" width="2" height="1" fill="#FFFFFF" />
<rect x="16" y="43" width="2" height="10" fill="#FFFFFF" />
<rect x="27" y="43" width="2" height="2" fill="#FFFFFF" />
<rect x="30" y="43" width="2" height="2" fill="#FFFFFF" />
<rect x="10" y="44" width="2" height="3" fill="#FFFFFF" />
<rect x="15" y="44" width="1" height="8" fill="#FFFFFF" />
<rect x="23" y="44" width="2" height="2" fill="#FFFFFF" />
<rect x="29" y="44" width="1" height="5" fill="#FFFFFF" />
<rect x="30" y="45" width="1" height="4" fill="#FFFFFF" />
<rect x="18" y="46" width="1" height="2" fill="#FFFFFF" />
<rect x="14" y="47" width="1" height="8" fill="#FFFFFF" />
<rect x="31" y="47" width="2" height="2" fill="#FFFFFF" />
<rect x="22" y="48" width="4" height="4" fill="#FFFFFF" />
<rect x="33" y="49" width="2" height="2" fill="#FFFFFF" />
<rect x="13" y="50" width="1" height="6" fill="#FFFFFF" />
<rect x="18" y="51" width="2" height="3" fill="#FFFFFF" />
<rect x="21" y="51" width="1" height="3" fill="#FFFFFF" />
<rect x="26" y="51" width="1" height="9" fill="#FFFFFF" />
<rect x="9" y="52" width="2" height="3" fill="#FFFFFF" />
<rect x="20" y="52" width="1" height="5" fill="#FFFFFF" />
<rect x="22" y="52" width="2" height="1" fill="#FFFFFF" />
<rect x="25" y="52" width="1" height="8" fill="#FFFFFF" />
<rect x="8" y="53" width="1" height="3" fill="#FFFFFF" />
<rect x="12" y="53" width="1" height="3" fill="#FFFFFF" />
<rect x="22" y="53" width="1" height="1" fill="#FFFFFF" />
<rect x="27" y="53" width="3" height="3" fill="#FFFFFF" />
<rect x="19" y="54" width="1" height="3" fill="#FFFFFF" />
<rect x="30" y="54" width="2" height="3" fill="#FFFFFF" />
<rect x="38" y="54" width="2" height="6" fill="#FFFFFF" />
<rect x="9" y="55" width="1" height="1" fill="#FFFFFF" />
<rect x="17" y="55" width="2" height="2" fill="#FFFFFF" />
<rect x="16" y="56" width="1" height="7" fill="#FFFFFF" />
<rect x="32" y="56" width="2" height="8" fill="#FFFFFF" />
<rect x="17" y="57" width="1" height="5" fill="#FFFFFF" />
<rect x="22" y="57" width="2" height="3" fill="#FFFFFF" />
<rect x="31" y="57" width="1" height="1" fill="#FFFFFF" />
<rect x="24" y="58" width="1" height="2" fill="#FFFFFF" />
<rect x="27" y="59" width="2" height="3" fill="#FFFFFF" />
<rect x="14" y="61" width="2" height="3" fill="#FFFFFF" />
<rect x="29" y="61" width="2" height="5" fill="#FFFFFF" />
<rect x="13" y="62" width="1" height="7" fill="#FFFFFF" />
<rect x="12" y="64" width="1" height="5" fill="#FFFFFF" />
<rect x="14" y="64" width="1" height="1" fill="#FFFFFF" />
</svg>