<?xml version="1.0" encoding="UTF-8" ?>
<svg version="1.1" width="42" height="80" xmlns="http://www.w3.org/2000/svg" shape-rendering="crispEdges">
<rect x="26" y="0" width="2" height="2" fill="#FFFFFF" />
<rect x="25" y="1" width="1" height="5" fill="#FFFFFF" />
<rect x="24" y="2" width="1" height="2" fill="#FFFFFF" />
<rect x="26" y="2" width="1" height="1" fill="#FFFFFF" />
<rect x="26" y="4" width="1" height="2" fill="#FFFFFF" />
<rect x="23" y="5" width="2" height="2" fill="#FFFFFF" />
<rect x="24" y="7" width="2" height="2" fill="#FFFFFF" />
<rect x="26" y="8" width="1" height="8" fill="#FFFFFF" />
<rect x="25" y="9" width="1" height="14" fill="#FFFFFF" />
<rect x="33" y="10" width="2" height="2" fill="#FFFFFF" />
<rect x="19" y="11" width="2" height="2" fill="#FFFFFF" />
<rect x="27" y="11" width="1" height="3" fill="#FFFFFF" />
<rect x="24" y="12" width="1" height="1" fill="#FFFFFF" />
<rect x="28" y="12" width="1" height="5" fill="#FFFFFF" />
<rect x="22" y="13" width="2" height="2" fill="#FFFFFF" />
<rect x="8" y="14" width="3" height="2" fill="#FFFFFF" />
<rect x="21" y="14" width="1" height="2" fill="#FFFFFF" />
<rect x="22" y="15" width="1" height="1" fill="#FFFFFF" />
<rect x="29" y="15" width="1" height="2" fill="#FFFFFF" />
<rect x="8" y="16" width="2" height="1" fill="#FFFFFF" />
<rect x="24" y="16" width="1" height="6" fill="#FFFFFF" />
<rect x="36" y="16" width="4" height="2" fill="#FFFFFF" />
<rect x="23" y="17" width="1" height="2" fill="#FFFFFF" />
<rect x="26" y="17" width="2" height="2" fill="#FFFFFF" />
<rect x="30" y="17" width="2" height="2" fill="#FFFFFF" />
<rect x="33" y="18" width="2" height="5" fill="#FFFFFF" />
<rect x="26" y="19" width="1" height="4" fill="#FFFFFF" />
<rect x="29" y="19" width="2" height="2" fill="#FFFFFF" />
<rect x="7" y="20" width="2" height="2" fill="#FFFFFF" />
<rect x="11" y="20" width="5" height="2" fill="#FFFFFF" />
<rect x="21" y="20" width="3" height="2" fill="#FFFFFF" />
<rect x="18" y="21" width="2" height="4" fill="#FFFFFF" />
<rect x="27" y="21" width="2" height="2" fill="#FFFFFF" />
<rect x="20" y="22" width="3" height="2" fill="#FFFFFF" />
<rect x="29" y="22" width="1" height="15" fill="#FFFFFF" />
<rect x="28" y="23" width="1" height="14" fill="#FFFFFF" />
<rect x="32" y="23" width="2" height="2" fill="#FFFFFF" />
<rect x="21" y="24" width="4" height="2" fill="#FFFFFF" />
<rect x="30" y="24" width="2" height="2" fill="#FFFFFF" />
<rect x="21" y="26" width="2" height="2" fill="#FFFFFF" />
<rect x="24" y="26" width="2" height="2" fill="#FFFFFF" />
<rect x="18" y="27" width="3" height="2" fill="#FFFFFF" />
<rect x="23" y="27" width="1" height="5" fill="#FFFFFF" />
<rect x="15" y="28" width="3" height="2" fill="#FFFFFF" />
<rect x="21" y="28" width="1" height="1" fill="#FFFFFF" />
<rect x="24" y="28" width="1" height="4" fill="#FFFFFF" />
<rect x="18" y="29" width="1" height="2" fill="#FFFFFF" />
<rect x="25" y="29" width="1" height="2" fill="#FFFFFF" />
<rect x="30" y="29" width="4" height="2" fill="#FFFFFF" />
<rect x="16" y="30" width="2" height="5" fill="#FFFFFF" />
<rect x="30" y="31" width="2" height="3" fill="#FFFFFF" />
<rect x="15" y="32" width="1" height="2" fill="#FFFFFF" />
<rect x="25" y="32" width="2" height="2" fill="#FFFFFF" />
<rect x="12" y="33" width="2" height="3" fill="#FFFFFF" />
<rect x="21" y="33" width="2" height="2" fill="#FFFFFF" />
<rect x="20" y="34" width="1" height="2" fill="#FFFFFF" />
<rect x="23" y="34" width="2" height="4" fill="#FFFFFF" />
<rect x="15" y="35" width="2" height="2" fill="#FFFFFF" />
<rect x="21" y="35" width="1" height="1" fill="#FFFFFF" />
<rect x="13" y="37" width="3" height="5" fill="#FFFFFF" />
<rect x="17" y="38" width="4" height="2" fill="#FFFFFF" />
<rect x="16" y="39" width="1" height="3" fill="#FFFFFF" />
<rect x="22" y="39" width="2" height="2" fill="#FFFFFF" />
<rect x="17" y="40" width="1" height="1" fill="#FFFFFF" />
<rect x="24" y="40" width="1" height="3" fill="#FFFFFF" />
<rect x="11" y="41" width="2" height="3" fill="#FFFFFF" />
<rect x="23" y="41" width="1" height="2" fill="#FFFFFF" />
<rect x="25" y="41" width="2" height="2" fill="#FFFFFF" />
<rect x="29" y="41" width="3" height="2" fill="#FFFFFF" />
<rect x="13" y="42" width="2" height="1" fill="#FFFFFF" />
<rect x="16" y="43" width="2" height="3" fill="#FFFFFF" />
<rect x="27" y="43" width="2" height="2" fill="#FFFFFF" />
<rect x="30" y="43" width="2" height="2" fill="#FFFFFF" />
<rect x="10" y="44" width="2" height="3" fill="#FFFFFF" />
<rect x="15" y="44" width="1" height="3" fill="#FFFFFF" />
<rect x="29" y="44" width="1" height="5" fill="#FFFFFF" />
<rect x="30" y="45" width="1" height="4" fill="#FFFFFF" />
<rect x="16" y="46" width="1" height="1" fill="#FFFFFF" />
<rect x="31" y="47" width="2" height="2" fill="#FFFFFF" />
<rect x="33" y="49" width="2" height="2" fill="#FFFFFF" />
</svg>