<?xml version="1.0" encoding="UTF-8" ?>
<svg version="1.1" width="42" height="80" xmlns="http://www.w3.org/2000/svg" shape-rendering="crispEdges">
<rect x="33" y="10" width="2" height="1" fill="#FFFFFF" />
<rect x="19" y="11" width="2" height="2" fill="#FFFFFF" />
<rect x="33" y="11" width="1" height="1" fill="#FFFFFF" />
<rect x="24" y="12" width="1" height="1" fill="#FFFFFF" />
<rect x="28" y="12" width="1" height="1" fill="#FFFFFF" />
<rect x="23" y="13" width="1" height="2" fill="#FFFFFF" />
<rect x="22" y="14" width="1" height="2" fill="#FFFFFF" />
<rect x="28" y="14" width="1" height="1" fill="#FFFFFF" />
<rect x="21" y="15" width="1" height="1" fill="#FFFFFF" />
<rect x="25" y="15" width="1" height="1" fill="#FFFFFF" />
<rect x="9" y="16" width="1" height="1" fill="#FFFFFF" />
<rect x="24" y="16" width="1" height="1" fill="#FFFFFF" />
<rect x="36" y="16" width="1" height="1" fill="#FFFFFF" />
<rect x="23" y="17" width="1" height="2" fill="#FFFFFF" />
<rect x="24" y="18" width="1" height="3" fill="#FFFFFF" />
<rect x="26" y="18" width="2" height="1" fill="#FFFFFF" />
<rect x="34" y="18" width="1" height="1" fill="#FFFFFF" />
<rect x="3" y="19" width="2" height="2" fill="#FFFFFF" />
<rect x="25" y="19" width="2" height="3" fill="#FFFFFF" />
<rect x="29" y="19" width="1" height="2" fill="#FFFFFF" />
<rect x="7" y="20" width="1" height="1" fill="#FFFFFF" />
<rect x="12" y="20" width="1" height="1" fill="#FFFFFF" />
<rect x="21" y="20" width="3" height="2" fill="#FFFFFF" />
<rect x="13" y="21" width="1" height="1" fill="#FFFFFF" />
<rect x="15" y="21" width="1" height="1" fill="#FFFFFF" />
<rect x="18" y="21" width="2" height="4" fill="#FFFFFF" />
<rect x="27" y="21" width="2" height="2" fill="#FFFFFF" />
<rect x="2" y="22" width="2" height="1" fill="#FFFFFF" />
<rect x="20" y="22" width="3" height="2" fill="#FFFFFF" />
<rect x="26" y="22" width="1" height="1" fill="#FFFFFF" />
<rect x="29" y="22" width="1" height="3" fill="#FFFFFF" />
<rect x="2" y="23" width="1" height="1" fill="#FFFFFF" />
<rect x="28" y="23" width="1" height="3" fill="#FFFFFF" />
<rect x="32" y="23" width="1" height="2" fill="#FFFFFF" />
<rect x="3" y="24" width="1" height="2" fill="#FFFFFF" />
<rect x="21" y="24" width="1" height="2" fill="#FFFFFF" />
<rect x="30" y="24" width="2" height="2" fill="#FFFFFF" />
<rect x="33" y="24" width="1" height="1" fill="#FFFFFF" />
<rect x="25" y="26" width="1" height="2" fill="#FFFFFF" />
<rect x="18" y="27" width="2" height="1" fill="#FFFFFF" />
<rect x="24" y="27" width="1" height="12" fill="#FFFFFF" />
<rect x="6" y="28" width="2" height="3" fill="#FFFFFF" />
<rect x="15" y="28" width="4" height="2" fill="#FFFFFF" />
<rect x="23" y="28" width="1" height="4" fill="#FFFFFF" />
<rect x="25" y="29" width="1" height="10" fill="#FFFFFF" />
<rect x="30" y="29" width="4" height="1" fill="#FFFFFF" />
<rect x="38" y="29" width="2" height="2" fill="#FFFFFF" />
<rect x="16" y="30" width="3" height="1" fill="#FFFFFF" />
<rect x="31" y="30" width="3" height="1" fill="#FFFFFF" />
<rect x="16" y="31" width="2" height="4" fill="#FFFFFF" />
<rect x="26" y="31" width="1" height="3" fill="#FFFFFF" />
<rect x="31" y="31" width="1" height="3" fill="#FFFFFF" />
<rect x="36" y="31" width="2" height="2" fill="#FFFFFF" />
<rect x="4" y="32" width="2" height="2" fill="#FFFFFF" />
<rect x="11" y="32" width="2" height="5" fill="#FFFFFF" />
<rect x="15" y="32" width="1" height="2" fill="#FFFFFF" />
<rect x="28" y="32" width="1" height="5" fill="#FFFFFF" />
<rect x="30" y="32" width="1" height="2" fill="#FFFFFF" />
<rect x="38" y="32" width="2" height="2" fill="#FFFFFF" />
<rect x="13" y="33" width="1" height="3" fill="#FFFFFF" />
<rect x="21" y="33" width="2" height="8" fill="#FFFFFF" />
<rect x="29" y="33" width="1" height="4" fill="#FFFFFF" />
<rect x="20" y="34" width="1" height="2" fill="#FFFFFF" />
<rect x="23" y="34" width="1" height="4" fill="#FFFFFF" />
<rect x="10" y="35" width="1" height="2" fill="#FFFFFF" />
<rect x="15" y="35" width="2" height="2" fill="#FFFFFF" />
<rect x="35" y="36" width="2" height="2" fill="#FFFFFF" />
<rect x="13" y="37" width="3" height="5" fill="#FFFFFF" />
<rect x="17" y="38" width="4" height="2" fill="#FFFFFF" />
<rect x="16" y="39" width="1" height="10" fill="#FFFFFF" />
<rect x="23" y="39" width="1" height="7" fill="#FFFFFF" />
<rect x="17" y="40" width="1" height="9" fill="#FFFFFF" />
<rect x="19" y="40" width="2" height="3" fill="#FFFFFF" />
<rect x="24" y="40" width="1" height="9" fill="#FFFFFF" />
<rect x="11" y="41" width="2" height="3" fill="#FFFFFF" />
<rect x="18" y="41" width="1" height="4" fill="#FFFFFF" />
<rect x="21" y="41" width="1" height="7" fill="#FFFFFF" />
<rect x="25" y="41" width="5" height="2" fill="#FFFFFF" />
<rect x="8" y="42" width="2" height="3" fill="#FFFFFF" />
<rect x="13" y="42" width="2" height="1" fill="#FFFFFF" />
<rect x="10" y="43" width="1" height="12" fill="#FFFFFF" />
<rect x="20" y="43" width="1" height="5" fill="#FFFFFF" />
<rect x="22" y="43" width="1" height="2" fill="#FFFFFF" />
<rect x="26" y="43" width="3" height="2" fill="#FFFFFF" />
<rect x="35" y="43" width="2" height="22" fill="#FFFFFF" />
<rect x="4" y="44" width="1" height="6" fill="#FFFFFF" />
<rect x="11" y="44" width="1" height="8" fill="#FFFFFF" />
<rect x="13" y="44" width="3" height="6" fill="#FFFFFF" />
<rect x="29" y="44" width="1" height="9" fill="#FFFFFF" />
<rect x="31" y="44" width="2" height="10" fill="#FFFFFF" />
<rect x="5" y="45" width="1" height="18" fill="#FFFFFF" />
<rect x="9" y="45" width="1" height="35" fill="#FFFFFF" />
<rect x="25" y="45" width="1" height="2" fill="#FFFFFF" />
<rect x="27" y="45" width="2" height="5" fill="#FFFFFF" />
<rect x="30" y="45" width="1" height="12" fill="#FFFFFF" />
<rect x="34" y="45" width="1" height="10" fill="#FFFFFF" />
<rect x="6" y="46" width="1" height="8" fill="#FFFFFF" />
<rect x="8" y="46" width="1" height="31" fill="#FFFFFF" />
<rect x="12" y="46" width="1" height="5" fill="#FFFFFF" />
<rect x="18" y="46" width="1" height="2" fill="#FFFFFF" />
<rect x="37" y="46" width="2" height="3" fill="#FFFFFF" />
<rect x="7" y="47" width="1" height="7" fill="#FFFFFF" />
<rect x="23" y="47" width="1" height="2" fill="#FFFFFF" />
<rect x="18" y="48" width="5" height="28" fill="#000000" />
<rect x="25" y="48" width="1" height="1" fill="#FFFFFF" />
<rect x="33" y="48" width="1" height="5" fill="#FFFFFF" />
<rect x="0" y="49" width="4" height="2" fill="#FFFFFF" />
<rect x="16" y="49" width="2" height="30" fill="#000000" />
<rect x="23" y="49" width="3" height="27" fill="#000000" />
<rect x="37" y="49" width="1" height="5" fill="#FFFFFF" />
<rect x="13" y="50" width="1" height="1" fill="#FFFFFF" />
<rect x="14" y="50" width="2" height="11" fill="#000000" />
<rect x="26" y="50" width="2" height="11" fill="#000000" />
<rect x="0" y="51" width="1" height="3" fill="#FFFFFF" />
<rect x="13" y="51" width="1" height="9" fill="#000000" />
<rect x="28" y="51" width="1" height="9" fill="#000000" />
<rect x="1" y="52" width="4" height="2" fill="#FFFFFF" />
<rect x="12" y="53" width="1" height="5" fill="#000000" />
<rect x="29" y="53" width="1" height="5" fill="#000000" />
<rect x="3" y="54" width="2" height="3" fill="#FFFFFF" />
<rect x="31" y="54" width="1" height="6" fill="#FFFFFF" />
<rect x="38" y="54" width="2" height="6" fill="#FFFFFF" />
<rect x="2" y="55" width="1" height="2" fill="#FFFFFF" />
<rect x="6" y="55" width="1" height="9" fill="#FFFFFF" />
<rect x="7" y="56" width="1" height="24" fill="#FFFFFF" />
<rect x="10" y="56" width="1" height="24" fill="#FFFFFF" />
<rect x="32" y="56" width="2" height="24" fill="#FFFFFF" />
<rect x="4" y="57" width="1" height="10" fill="#FFFFFF" />
<rect x="34" y="57" width="1" height="2" fill="#FFFFFF" />
<rect x="11" y="58" width="1" height="7" fill="#FFFFFF" />
<rect x="30" y="58" width="1" height="18" fill="#FFFFFF" />
<rect x="1" y="59" width="2" height="3" fill="#FFFFFF" />
<rect x="12" y="59" width="1" height="3" fill="#FFFFFF" />
<rect x="37" y="59" width="1" height="10" fill="#FFFFFF" />
<rect x="41" y="59" width="1" height="2" fill="#FFFFFF" />
<rect x="28" y="60" width="2" height="2" fill="#FFFFFF" />
<rect x="38" y="60" width="1" height="3" fill="#FFFFFF" />
<rect x="3" y="61" width="1" height="5" fill="#FFFFFF" />
<rect x="14" y="61" width="2" height="1" fill="#FFFFFF" />
<rect x="27" y="61" width="1" height="1" fill="#FFFFFF" />
<rect x="31" y="61" width="1" height="19" fill="#FFFFFF" />
<rect x="34" y="61" width="1" height="4" fill="#FFFFFF" />
<rect x="39" y="61" width="2" height="3" fill="#FFFFFF" />
<rect x="2" y="62" width="1" height="2" fill="#FFFFFF" />
<rect x="13" y="62" width="2" height="1" fill="#FFFFFF" />
<rect x="15" y="62" width="1" height="17" fill="#000000" />
<rect x="26" y="62" width="1" height="17" fill="#000000" />
<rect x="29" y="62" width="1" height="9" fill="#FFFFFF" />
<rect x="12" y="63" width="2" height="12" fill="#FFFFFF" />
<rect x="14" y="63" width="1" height="10" fill="#000000" />
<rect x="27" y="63" width="1" height="10" fill="#000000" />
<rect x="5" y="64" width="1" height="4" fill="#FFFFFF" />
<rect x="38" y="64" width="1" height="2" fill="#FFFFFF" />
<rect x="6" y="65" width="1" height="15" fill="#FFFFFF" />
<rect x="1" y="66" width="2" height="3" fill="#FFFFFF" />
<rect x="11" y="66" width="1" height="14" fill="#FFFFFF" />
<rect x="36" y="66" width="1" height="6" fill="#FFFFFF" />
<rect x="28" y="67" width="1" height="7" fill="#FFFFFF" />
<rect x="34" y="67" width="2" height="6" fill="#FFFFFF" />
<rect x="3" y="70" width="3" height="2" fill="#FFFFFF" />
<rect x="37" y="70" width="2" height="4" fill="#FFFFFF" />
<rect x="4" y="72" width="2" height="1" fill="#FFFFFF" />
<rect x="29" y="72" width="1" height="3" fill="#FFFFFF" />
<rect x="40" y="72" width="2" height="2" fill="#FFFFFF" />
<rect x="5" y="73" width="1" height="1" fill="#FFFFFF" />
<rect x="14" y="73" width="1" height="1" fill="#FFFFFF" />
<rect x="27" y="73" width="1" height="1" fill="#FFFFFF" />
<rect x="34" y="73" width="1" height="7" fill="#FFFFFF" />
<rect x="36" y="73" width="1" height="6" fill="#FFFFFF" />
<rect x="3" y="74" width="2" height="2" fill="#FFFFFF" />
<rect x="14" y="74" width="1" height="5" fill="#000000" />
<rect x="27" y="74" width="2" height="5" fill="#000000" />
<rect x="35" y="74" width="1" height="6" fill="#FFFFFF" />
<rect x="37" y="74" width="1" height="4" fill="#FFFFFF" />
<rect x="12" y="75" width="2" height="4" fill="#000000" />
<rect x="29" y="75" width="1" height="4" fill="#000000" />
<rect x="5" y="76" width="1" height="2" fill="#FFFFFF" />
<rect x="18" y="76" width="1" height="3" fill="#000000" />
<rect x="19" y="76" width="5" height="4" fill="#FFFFFF" />
<rect x="24" y="76" width="2" height="3" fill="#000000" />
<rect x="30" y="76" width="1" height="3" fill="#000000" />
<rect x="40" y="76" width="2" height="2" fill="#FFFFFF" />
<rect x="38" y="77" width="2" height="2" fill="#FFFFFF" />
<rect x="8" y="78" width="1" height="2" fill="#FFFFFF" />
<rect x="40" y="78" width="1" height="1" fill="#FFFFFF" />
<rect x="12" y="79" width="7" height="1" fill="#FFFFFF" />
<rect x="24" y="79" width="7" height="1" fill="#FFFFFF" />
</svg>